<svg width="281" height="204" xmlns="http://www.w3.org/2000/svg" fill="none">
 <mask height="120" width="127" y="0" x="77" maskUnits="userSpaceOnUse" id="mask0_144_5892">
  <rect id="svg_1" fill="white" rx="34" height="120" width="125.76" x="77.552"/>
 </mask>
 <defs>
  <filter color-interpolation-filters="sRGB" filterUnits="userSpaceOnUse" height="28.3097" width="123.206" y="106.845" x="78.829" id="filter0_f_144_5892">
   <feGaussianBlur result="effect1_foregroundBlur_144_5892" stdDeviation="4.07742"/>
  </filter>
 </defs>
 <g>
  <title>Layer 1</title>
  <path id="svg_2" fill="white" d="m25.8995,155.39l0,6.552l-7.896,0l0,23.058l-8.23202,0l0,-23.058l-7.812,0l0,-6.552l23.94002,0zm1.7016,17.808c0,-2.436 0.434,-4.564 1.302,-6.384c0.896,-1.82 2.1,-3.22 3.612,-4.2c1.54,-0.98 3.248,-1.47 5.124,-1.47c1.624,0 3.024,0.322 4.2,0.966c1.176,0.644 2.086,1.512 2.73,2.604l0,-3.276l8.232,0l0,23.562l-8.232,0l0,-3.276c-0.644,1.092 -1.568,1.96 -2.772,2.604c-1.176,0.644 -2.562,0.966 -4.158,0.966c-1.876,0 -3.584,-0.49 -5.124,-1.47c-1.512,-0.98 -2.716,-2.38 -3.612,-4.2c-0.868,-1.848 -1.302,-3.99 -1.302,-6.426zm16.968,0c0,-1.512 -0.42,-2.702 -1.26,-3.57c-0.812,-0.868 -1.82,-1.302 -3.024,-1.302c-1.232,0 -2.254,0.434 -3.066,1.302c-0.812,0.84 -1.218,2.03 -1.218,3.57c0,1.512 0.406,2.716 1.218,3.612c0.812,0.868 1.834,1.302 3.066,1.302c1.204,0 2.212,-0.434 3.024,-1.302c0.84,-0.868 1.26,-2.072 1.26,-3.612zm27.6229,11.802l-4.242,-5.922l-3.36,5.922l-9.03,0l7.854,-12.222l-8.19,-11.34l9.24,0l4.242,5.922l3.402,-5.922l9.03,0l-8.022,12.012l8.316,11.55l-9.24,0zm15.8311,-25.746c-1.456,0 -2.632,-0.392 -3.528,-1.176c-0.868,-0.812 -1.302,-1.82 -1.302,-3.024c0,-1.232 0.434,-2.254 1.302,-3.066c0.896,-0.812 2.072,-1.218 3.528,-1.218c1.428,0 2.576,0.406 3.444,1.218c0.896,0.812 1.344,1.834 1.344,3.066c0,1.204 -0.448,2.212 -1.344,3.024c-0.868,0.784 -2.016,1.176 -3.444,1.176zm4.074,2.184l0,23.562l-8.232,0l0,-23.562l8.232,0zm3.6799,8.694c0,-2.912 0.602,-5.502 1.806,-7.77c1.232,-2.296 2.968,-4.074 5.208,-5.334c2.24,-1.288 4.816,-1.932 7.728,-1.932c3.696,0 6.804,0.994 9.324,2.982c2.52,1.96 4.144,4.634 4.872,8.022l-8.862,0c-0.532,-1.12 -1.274,-1.974 -2.226,-2.562c-0.924,-0.588 -2.002,-0.882 -3.234,-0.882c-1.904,0 -3.43,0.686 -4.578,2.058c-1.12,1.344 -1.68,3.15 -1.68,5.418c0,2.296 0.56,4.13 1.68,5.502c1.148,1.344 2.674,2.016 4.578,2.016c1.232,0 2.31,-0.294 3.234,-0.882c0.952,-0.588 1.694,-1.442 2.226,-2.562l8.862,0c-0.728,3.388 -2.352,6.076 -4.872,8.064c-2.52,1.96 -5.628,2.94 -9.324,2.94c-2.912,0 -5.488,-0.63 -7.728,-1.89c-2.24,-1.288 -3.976,-3.066 -5.208,-5.334c-1.204,-2.296 -1.806,-4.914 -1.806,-7.854zm43.798,15.162c-2.352,0 -4.466,-0.49 -6.342,-1.47c-1.848,-0.98 -3.304,-2.38 -4.368,-4.2c-1.064,-1.82 -1.596,-3.962 -1.596,-6.426c0,-2.436 0.532,-4.564 1.596,-6.384c1.092,-1.82 2.562,-3.22 4.41,-4.2c1.876,-0.98 3.99,-1.47 6.342,-1.47c2.352,0 4.452,0.49 6.3,1.47c1.876,0.98 3.346,2.38 4.41,4.2c1.092,1.82 1.638,3.948 1.638,6.384c0,2.436 -0.546,4.578 -1.638,6.426c-1.064,1.82 -2.534,3.22 -4.41,4.2c-1.876,0.98 -3.99,1.47 -6.342,1.47zm0,-7.14c1.148,0 2.1,-0.42 2.856,-1.26c0.784,-0.868 1.176,-2.1 1.176,-3.696c0,-1.596 -0.392,-2.814 -1.176,-3.654c-0.756,-0.84 -1.694,-1.26 -2.814,-1.26c-1.12,0 -2.058,0.42 -2.814,1.26c-0.756,0.84 -1.134,2.058 -1.134,3.654c0,1.624 0.364,2.856 1.092,3.696c0.728,0.84 1.666,1.26 2.814,1.26zm31.153,-16.926c2.716,0 4.872,0.91 6.468,2.73c1.596,1.792 2.394,4.228 2.394,7.308l0,13.734l-8.232,0l0,-12.642c0,-1.344 -0.35,-2.394 -1.05,-3.15c-0.7,-0.784 -1.638,-1.176 -2.814,-1.176c-1.232,0 -2.198,0.392 -2.898,1.176c-0.7,0.756 -1.05,1.806 -1.05,3.15l0,12.642l-8.232,0l0,-23.562l8.232,0l0,3.36c0.728,-1.064 1.708,-1.918 2.94,-2.562c1.232,-0.672 2.646,-1.008 4.242,-1.008zm28.793,0c2.716,0 4.872,0.91 6.468,2.73c1.596,1.792 2.394,4.228 2.394,7.308l0,13.734l-8.232,0l0,-12.642c0,-1.344 -0.35,-2.394 -1.05,-3.15c-0.7,-0.784 -1.638,-1.176 -2.814,-1.176c-1.232,0 -2.198,0.392 -2.898,1.176c-0.7,0.756 -1.05,1.806 -1.05,3.15l0,12.642l-8.232,0l0,-23.562l8.232,0l0,3.36c0.728,-1.064 1.708,-1.918 2.94,-2.562c1.232,-0.672 2.646,-1.008 4.242,-1.008zm35.891,11.718c0,0.644 -0.042,1.288 -0.126,1.932l-15.582,0c0.084,1.288 0.434,2.254 1.05,2.898c0.644,0.616 1.456,0.924 2.436,0.924c1.372,0 2.352,-0.616 2.94,-1.848l8.778,0c-0.364,1.624 -1.078,3.08 -2.142,4.368c-1.036,1.26 -2.352,2.254 -3.948,2.982c-1.596,0.728 -3.36,1.092 -5.292,1.092c-2.324,0 -4.396,-0.49 -6.216,-1.47c-1.792,-0.98 -3.206,-2.38 -4.242,-4.2c-1.008,-1.82 -1.512,-3.962 -1.512,-6.426c0,-2.464 0.504,-4.592 1.512,-6.384c1.008,-1.82 2.408,-3.22 4.2,-4.2c1.82,-0.98 3.906,-1.47 6.258,-1.47c2.324,0 4.382,0.476 6.174,1.428c1.792,0.952 3.192,2.324 4.2,4.116c1.008,1.764 1.512,3.85 1.512,6.258zm-8.4,-2.058c0,-1.008 -0.336,-1.792 -1.008,-2.352c-0.672,-0.588 -1.512,-0.882 -2.52,-0.882c-1.008,0 -1.834,0.28 -2.478,0.84c-0.644,0.532 -1.064,1.33 -1.26,2.394l7.266,0zm10.425,2.31c0,-2.436 0.504,-4.564 1.512,-6.384c1.008,-1.82 2.408,-3.22 4.2,-4.2c1.82,-0.98 3.892,-1.47 6.216,-1.47c2.996,0 5.516,0.826 7.56,2.478c2.044,1.624 3.36,3.906 3.948,6.846l-8.736,0c-0.504,-1.54 -1.484,-2.31 -2.94,-2.31c-1.036,0 -1.862,0.434 -2.478,1.302c-0.588,0.84 -0.882,2.086 -0.882,3.738c0,1.652 0.294,2.912 0.882,3.78c0.616,0.868 1.442,1.302 2.478,1.302c1.484,0 2.464,-0.77 2.94,-2.31l8.736,0c-0.588,2.912 -1.904,5.194 -3.948,6.846c-2.044,1.652 -4.564,2.478 -7.56,2.478c-2.324,0 -4.396,-0.49 -6.216,-1.47c-1.792,-0.98 -3.192,-2.38 -4.2,-4.2c-1.008,-1.82 -1.512,-3.962 -1.512,-6.426zm40.758,4.788l0,7.014l-3.57,0c-6.02,0 -9.03,-2.982 -9.03,-8.946l0,-7.77l-2.898,0l0,-6.846l2.898,0l0,-5.712l8.274,0l0,5.712l4.284,0l0,6.846l-4.284,0l0,7.896c0,0.644 0.14,1.106 0.42,1.386c0.308,0.28 0.812,0.42 1.512,0.42l2.394,0z"/>
  <g id="svg_3" filter="url(#filter0_f_144_5892)">
   <path id="svg_4" fill-opacity="0.2" fill="black" d="m140.432,127c29.518,0 53.448,-2.686 53.448,-6c0,-3.314 -23.93,-6 -53.448,-6c-29.519,0 -53.4481,2.686 -53.4481,6c0,3.314 23.9291,6 53.4481,6z" clip-rule="evenodd" fill-rule="evenodd"/>
  </g>
  <rect id="svg_5" fill="white" rx="34" height="120" width="125.76" x="77.552"/>
  <g id="svg_6" mask="url(#mask0_144_5892)">
   <path id="svg_7" fill-opacity="0.5" fill="#FFFBE7" d="m138.576,-12l0,12.64508l-5.944,0l0,49.20752l-7.807,0l0,-15.1539l-4.112,0l0,-3.6603l-8.995,3.6603l-2.204,0l0,-9.1033l-10.762,-13.1943l-10.7617,13.1943l0,30.9575l-5.0519,0l0,6.016l-7.4543,0l0,-24.5528l-6.1778,0l0.2573,-10.1873l-7.1492,0l0,-2.9177l-7.2436,0l-1.1146,-17.64413l-1.1141,17.64413l-1.3933,0l0,2.9177l-1.8799,0l0.6888,27.2828l-1.3343,0l0,-12.0366l-14.9771,-8.3763l0,15.1539l-14.9777,0l0,-11.8365l-9.24532,0l0,-6.9777l-15.83723,10.5896l0,-10.5896l-21.23405,14.1983l0,103.7633l15.8366,0l5.39745,0l15.16249,0l0.67474,0l9.24532,0l14.9777,0l14.9771,0l3.104,0l13.436,0l1.5411,0l7.5133,0l0.8663,0l12.5062,0l8.1515,0l13.3722,0l15.311,0l7.807,0l13.233,0l5.657,0l13.269,0l3.598,0l12.185,0l6.635,0l10.717,0l3.883,0l5.527,0l9.41,0l2.415,0l9.41,0l5.078,0l4.332,0l16.901,0l7.003,0l9.107,0l9.109,0l7.012,0l2.096,0l10.173,0l2.708,0l9.166,0l0,-101.1255l-7.213,0l0.506,-20.0457l-15.34,0l0,-29.01698l-9.108,0l0,6.16809l-9.109,0l0,5.64729l-9.107,0l0,29.1149l-7.003,0l0,-13.5367l-2.493,0l0,-1.4929l-16.247,0l0,1.4929l-2.493,0l0,28.2265l-5.078,0l0,-36.2768l-2.495,0l0,-1.4929l-16.245,0l0,1.4929l-2.495,0l0,20.8898l-5.527,0l0,-12.8395l-2.494,0l0,-1.4929l-16.246,0l0,1.4929l-2.495,0l0,4.833l-5.213,5.3172l0,8.9147l-6.972,0l0,-5.5282l-3.598,0l0,-13.5367l-13.269,0l0,-8.0142l-5.657,-4.571l0,-12.97512l-5.944,0l0,-12.64508l-1.345,0z" clip-rule="evenodd" fill-rule="evenodd"/>
   <path id="svg_8" fill-opacity="0.5" fill="#FFF1B1" d="m210.689,47l0,9.5034l-4.472,0l0,36.9821l-5.873,0l0,-11.3889l-3.094,0l0,-2.7509l-6.767,2.7509l-1.658,0l0,-6.8417l-8.096,-9.9162l-8.097,9.9162l0,23.2662l-3.8,0l0,4.5209l-5.608,0l0,-18.4522l-4.648,0l0.194,-7.6563l-5.379,0l0,-2.1929l-5.449,0l-0.839,-13.2605l-0.838,13.2605l-1.048,0l0,2.1929l-1.415,0l0.519,20.5044l-1.004,0l0,-9.0461l-11.268,-6.2952l0,11.3889l-11.268,0l0,-8.8957l-6.955,0l0,-5.2441l-11.915,7.9586l0,-7.9586l-15.975,10.6707l0,77.9836l11.9143,0l4.0607,0l11.407,0l0.508,0l6.955,0l11.268,0l11.268,0l2.335,0l10.108,0l1.16,0l5.652,0l0.652,0l9.408,0l6.133,0l10.06,0l11.519,0l5.873,0l9.956,0l4.256,0l9.983,0l2.706,0l9.167,0l4.992,0l8.063,0l2.921,0l4.158,0l7.079,0l1.817,0l7.079,0l3.82,0l3.259,0l12.716,0l5.268,0l6.852,0l6.853,0l5.275,0l1.577,0l7.653,0l2.038,0l6.895,0l0,-76.0012l-5.426,0l0.38,-15.0653l-11.54,0l0,-21.8078l-6.852,0l0,4.6356l-6.853,0l0,4.2442l-6.852,0l0,21.8814l-5.268,0l0,-10.1735l-1.876,0l0,-1.122l-12.223,0l0,1.122l-1.876,0l0,21.2137l-3.82,0l0,-27.2639l-1.877,0l0,-1.122l-12.221,0l0,1.122l-1.877,0l0,15.6998l-4.158,0l0,-9.6496l-1.877,0l0,-1.122l-12.222,0l0,1.122l-1.877,0l0,3.6323l-3.922,3.9961l0,6.6998l-5.245,0l0,-4.1547l-2.706,0l0,-10.1735l-9.983,0l0,-6.0231l-4.256,-3.4354l0,-9.7515l-4.472,0l0,-9.5034l-1.012,0z" clip-rule="evenodd" fill-rule="evenodd"/>
   <path id="svg_9" fill-opacity="0.5" fill="#FFF1B1" d="m42.3113,75l0,7.2258l3.4045,0l0,28.1182l4.4719,0l0,-8.659l2.3552,0l0,-2.0916l5.1518,2.0916l1.262,0l0,-5.2019l6.1642,-7.5396l6.1638,7.5396l0,17.6899l2.8935,0l0,3.438l4.2695,0l0,-14.03l3.5384,0l-0.1474,-5.8217l4.0947,0l0,-1.6673l4.1488,0l0.6385,-10.0823l0.6381,10.0823l0.798,0l0,1.6673l1.0767,0l-0.3945,15.5897l0.7642,0l0,-6.878l8.5778,-4.786l0,8.659l8.579,0l0,-6.763l5.295,0l0,-3.9876l9.071,6.0516l0,-6.0516l12.162,8.1136l0,59.293l-9.07,0l-3.092,0l-8.684,0l-0.387,0l-5.295,0l-8.579,0l-8.5778,0l-1.7778,0l-7.6956,0l-0.8827,0l-4.3032,0l-0.4962,0l-7.163,0l-4.6688,0l-7.6592,0l-8.769,0l-4.4719,0l-7.5794,0l-3.24,0l-7.6,0l-2.0607,0l-6.9789,0l-3.8,0l-6.13844,0l-2.22388,0l-3.16572,0l-5.3893,0l-1.38368,0l-5.3893,0l-2.90828,0l-2.4813,0l-9.6804,0l-4.0107,0l-5.2165,0l-5.2171,0l-4.0163,0l-1.2002,0l-5.8266,0l-1.5514,0l-5.2496,0l0,-57.786l4.1311,0l-0.2896,-11.4547l8.7861,0l0,-16.5811l5.2165,0l0,3.5246l5.2171,0l0,3.227l5.2165,0l0,16.6372l4.0107,0l0,-7.7353l1.4281,0l0,-0.8531l9.3051,0l0,0.8531l1.4285,0l0,16.1293l2.90828,0l0,-20.7295l1.42873,0l0,-0.8531l9.30481,0l0,0.8531l1.42874,0l0,11.9375l3.16572,0l0,-7.3373l1.42842,0l0,-0.8531l9.3048,0l0,0.8531l1.4291,0l0,2.7617l2.9858,3.0386l0,5.094l3.9931,0l0,-3.159l2.0607,0l0,-7.7353l7.6,0l0,-4.5796l3.24,-2.612l0,-7.4143l3.4049,0l0,-7.2258l0.77,0z" clip-rule="evenodd" fill-rule="evenodd"/>
   <path id="svg_10" fill="#FEC400" d="m165.373,84.2749l-2.387,-2.5595l-0.006,0.0061l2.393,2.5534zm-49.867,0l2.398,-2.5501c-0.005,-0.0042 -0.009,-0.0084 -0.014,-0.0126l-2.384,2.5627zm-10.445,-28.328l3.472,0.4416l0.001,-0.0084l-3.473,-0.4332zm70.74,0.0193l-3.474,0.4286l0.002,0.0137l3.472,-0.4423zm0,0.0725l1.556,3.1353c1.331,-0.6607 2.1,-2.0903 1.917,-3.5655l-3.473,0.4302zm-70.74,0l-3.479,-0.3884c-0.163,1.4601 0.604,2.8667 1.919,3.5215l1.56,-3.1331zm60.312,28.2362l2.389,2.5579c0.848,-0.7912 1.248,-1.9507 1.07,-3.0962l-3.459,0.5383zm-49.867,0l-3.459,-0.5324c-0.176,1.142 0.224,2.2972 1.067,3.087l2.392,-2.5546zm57.058,-24.2649c0,8.4683 -3.64,16.1667 -9.578,21.7054l4.775,5.119c7.263,-6.775 11.803,-16.2901 11.803,-26.8244l-7,0zm-9.584,21.7115c-5.793,5.4308 -13.736,8.7885 -22.549,8.7885l0,7c10.617,0 20.264,-4.052 27.336,-10.6817l-4.787,-5.1068zm-22.549,8.7885c-8.797,0 -16.755,-3.3588 -22.527,-8.7852l-4.795,5.1001c7.057,6.6343 16.725,10.6851 27.322,10.6851l0,-7zm-22.541,-8.7978c-5.953,-5.5373 -9.59,-13.2339 -9.59,-21.7022l-7,0c0,10.5343 4.538,20.0512 11.823,26.8276l4.767,-5.1254zm-9.59,-21.7022c0,-1.2236 0.082,-2.4339 0.233,-3.6215l-6.944,-0.8832c-0.186,1.4639 -0.289,2.9695 -0.289,4.5047l7,0zm0.234,-3.6299c1.871,-14.9999 15.327,-26.8701 31.897,-26.8701l0,-7c-19.888,0 -36.51,14.2932 -38.843,33.0038l6.946,0.8663zm31.897,-26.8701c16.591,0 30.044,11.8704 31.896,26.8848l6.948,-0.8571c-2.312,-18.7346 -18.937,-33.0277 -38.844,-33.0277l0,7zm31.898,26.8985c0.152,1.1909 0.235,2.3834 0.235,3.6015l7,0c0,-1.5407 -0.106,-3.0297 -0.291,-4.4861l-6.944,0.8846zm1.916,-3.505c-9.386,4.6571 -20.275,7.4593 -33.13,7.4593l0,7c13.922,0 25.878,-3.0465 36.242,-8.1888l-3.112,-6.2705zm-33.13,7.4593c-12.921,0 -25.165,-2.812 -34.494,-7.4572l-3.12,6.2662c10.42,5.1887 23.755,8.191 37.614,8.191l0,-7zm-32.576,-3.9357c1.716,-15.3667 16.14,-27.3039 32.494,-26.9181l0.165,-6.998c-19.634,-0.4632 -37.459,13.8305 -39.616,33.1393l6.957,0.7768zm32.494,-26.9181c16.393,0.3868 29.428,11.8858 31.295,26.9599l6.946,-0.8604c-2.325,-18.7784 -18.482,-32.6353 -38.076,-33.0975l-0.165,6.998zm21.952,52.2079c-5.844,5.4577 -13.68,8.7931 -22.554,8.7931l0,7c10.689,0 20.222,-4.0373 27.331,-10.6772l-4.777,-5.1159zm-22.554,8.7931c-8.858,0 -16.709,-3.3365 -22.532,-8.7897l-4.785,5.1092c7.095,6.6443 16.647,10.6805 27.317,10.6805l0,-7zm-21.465,-5.7027c1.496,-9.7221 10.896,-17.4445 22.149,-17.4445l0,-7c-14.242,0 -26.978,9.8019 -29.068,23.3797l6.919,1.0648zm22.149,-17.4445c11.011,0 19.251,7.4954 20.8,17.4504l6.917,-1.0766c-2.077,-13.345 -13.236,-23.3738 -27.717,-23.3738l0,7z"/>
  </g>
 </g>
</svg>