<svg width="375" height="210" xmlns="http://www.w3.org/2000/svg" fill="none">

 <g>
  <title>Layer 1</title>
  <path id="svg_1" fill="#FFFBE7" d="m312.412,208.132c0,0 55.625,-24.741 54.33,-74.656c-1.293,-49.9158 -54.011,-73.1272 -89.8,-42.3093c-35.79,30.8173 -58.952,4.9749 -77.494,-21.0683c-18.541,-26.0426 -59.904,-58.9094 -114.1727,-43.7223c-56.8495,15.9091 -74.3432,73.4889 -68.7122,111.9129c4.0448,27.599 18.8376,50.999 38.9958,68.979c0.6556,0.585 1.3267,1.163 2.0135,1.732l254.8396,-0.868z"/>
  <path id="svg_2" fill="#FFF1B1" d="m66.7517,101.681l-27.6067,0l0,35.529l27.6067,0l0,-35.529z"/>
  <path id="svg_3" fill="#FFF1B1" d="m256.978,83.2788l-48.124,0l0,48.1302l48.124,0l0,-48.1302z"/>
  <path id="svg_4" fill="#FFF1B1" d="m129.265,89.3422l-27.607,0l0,35.5288l27.607,0l0,-35.5288z"/>
  <path id="svg_5" fill="#FFF1B1" d="m181.497,108.571l-27.606,0l0,35.528l27.606,0l0,-35.528z"/>
  <path id="svg_6" fill="#FFF1B1" d="m372.676,169.276l-361.1377,0l0,-46.619l361.1377,0l0,46.619z"/>
  <path id="svg_7" fill="#FFF1B1" d="m39.1451,87.1278l-27.6068,0l0,35.5292l27.6068,0l0,-35.5292z"/>
  <path id="svg_8" fill="#E9EDFD" d="m157.817,54.6682c0,9.9384 -8.055,17.9945 -17.992,17.9945c-9.937,0 -17.993,-8.0561 -17.993,-17.9945c0,-9.9384 8.056,-17.9945 17.993,-17.9945c9.937,0 17.992,8.0561 17.992,17.9945z"/>
  <path id="svg_9" fill="#FFFBE7" d="m143.99,46.4206c0,2.3001 -1.865,4.165 -4.165,4.165c-2.3,0 -4.164,-1.8649 -4.164,-4.165c0,-2.3001 1.864,-4.165 4.164,-4.165c2.3,0 4.165,1.8649 4.165,4.165z"/>
  <path id="svg_10" fill="#F9E586" d="m160.85,169.276l-42.05,0l0,-116.0792l42.05,0l0,116.0792z"/>
  <path id="svg_11" fill="#FFF1B1" d="m132.856,77.9637l-8.361,0l0,-16.453l8.361,0l0,16.453z"/>
  <path id="svg_12" fill="#FFF1B1" d="m153.891,77.9637l-8.36,0l0,-16.453l8.36,0l0,16.453z"/>
  <path id="svg_13" fill="#FFF1B1" d="m132.856,103.047l-8.361,0l0,-16.4523l8.361,0l0,16.4523z"/>
  <path id="svg_14" fill="#FFF1B1" d="m153.891,103.047l-8.36,0l0,-16.4523l8.36,0l0,16.4523z"/>
  <path id="svg_15" fill="#FFF1B1" d="m132.856,128.132l-8.361,0l0,-16.453l8.361,0l0,16.453z"/>
  <path id="svg_16" fill="#FFF1B1" d="m153.891,128.132l-8.36,0l0,-16.453l8.36,0l0,16.453z"/>
  <path id="svg_17" fill="#FFF1B1" d="m132.856,153.216l-8.361,0l0,-16.453l8.361,0l0,16.453z"/>
  <path id="svg_18" fill="#FFF1B1" d="m153.891,153.216l-8.36,0l0,-16.453l8.36,0l0,16.453z"/>
  <path id="svg_19" fill="#F9E586" d="m216.482,169.276l-45.732,0l0,-142.9085l45.732,0l0,142.9085z"/>
  <path id="svg_20" fill="#FFF1B1" d="m181.496,42.7683l-6.236,0l0,-6.2365l6.236,0l0,6.2365z"/>
  <path id="svg_21" fill="#FFF1B1" d="m196.734,42.7683l-6.236,0l0,-6.2365l6.236,0l0,6.2365z"/>
  <path id="svg_22" fill="#FFF1B1" d="m211.972,42.7683l-6.235,0l0,-6.2365l6.235,0l0,6.2365z"/>
  <path id="svg_23" fill="#FFF1B1" d="m181.496,53.7845l-6.236,0l0,-6.2365l6.236,0l0,6.2365z"/>
  <path id="svg_24" fill="#FFF1B1" d="m196.734,53.7845l-6.236,0l0,-6.2365l6.236,0l0,6.2365z"/>
  <path id="svg_25" fill="#FFF1B1" d="m211.972,53.7845l-6.235,0l0,-6.2365l6.235,0l0,6.2365z"/>
  <path id="svg_26" fill="#FFF1B1" d="m181.496,64.8007l-6.236,0l0,-6.2365l6.236,0l0,6.2365z"/>
  <path id="svg_27" fill="#FFF1B1" d="m196.734,64.8007l-6.236,0l0,-6.2365l6.236,0l0,6.2365z"/>
  <path id="svg_28" fill="#FFF1B1" d="m211.972,64.8007l-6.235,0l0,-6.2365l6.235,0l0,6.2365z"/>
  <path id="svg_29" fill="#FFF1B1" d="m181.496,75.8173l-6.236,0l0,-6.237l6.236,0l0,6.237z"/>
  <path id="svg_30" fill="#FFF1B1" d="m196.734,75.8173l-6.236,0l0,-6.237l6.236,0l0,6.237z"/>
  <path id="svg_31" fill="#FFF1B1" d="m211.972,75.8173l-6.235,0l0,-6.237l6.235,0l0,6.237z"/>
  <path id="svg_32" fill="#FFF1B1" d="m181.496,86.8329l-6.236,0l0,-6.2364l6.236,0l0,6.2364z"/>
  <path id="svg_33" fill="#FFF1B1" d="m196.734,86.8329l-6.236,0l0,-6.2364l6.236,0l0,6.2364z"/>
  <path id="svg_34" fill="#FFF1B1" d="m211.972,86.8329l-6.235,0l0,-6.2364l6.235,0l0,6.2364z"/>
  <path id="svg_35" fill="#FFF1B1" d="m181.496,97.8491l-6.236,0l0,-6.237l6.236,0l0,6.237z"/>
  <path id="svg_36" fill="#FFF1B1" d="m196.734,97.8491l-6.236,0l0,-6.237l6.236,0l0,6.237z"/>
  <path id="svg_37" fill="#FFF1B1" d="m211.972,97.8491l-6.235,0l0,-6.237l6.235,0l0,6.237z"/>
  <path id="svg_38" fill="#FFF1B1" d="m181.496,108.865l-6.236,0l0,-6.236l6.236,0l0,6.236z"/>
  <path id="svg_39" fill="#FFF1B1" d="m196.734,108.865l-6.236,0l0,-6.236l6.236,0l0,6.236z"/>
  <path id="svg_40" fill="#FFF1B1" d="m211.972,108.865l-6.235,0l0,-6.236l6.235,0l0,6.236z"/>
  <path id="svg_41" fill="#FFF1B1" d="m181.496,119.881l-6.236,0l0,-6.236l6.236,0l0,6.236z"/>
  <path id="svg_42" fill="#FFF1B1" d="m196.734,119.881l-6.236,0l0,-6.236l6.236,0l0,6.236z"/>
  <path id="svg_43" fill="#FFF1B1" d="m211.972,119.881l-6.235,0l0,-6.236l6.235,0l0,6.236z"/>
  <path id="svg_44" fill="#FFF1B1" d="m181.496,130.898l-6.236,0l0,-6.237l6.236,0l0,6.237z"/>
  <path id="svg_45" fill="#FFF1B1" d="m196.734,130.898l-6.236,0l0,-6.237l6.236,0l0,6.237z"/>
  <path id="svg_46" fill="#FFF1B1" d="m211.972,130.898l-6.235,0l0,-6.237l6.235,0l0,6.237z"/>
  <path id="svg_47" fill="#FFF1B1" d="m181.496,141.914l-6.236,0l0,-6.237l6.236,0l0,6.237z"/>
  <path id="svg_48" fill="#FFF1B1" d="m196.734,141.914l-6.236,0l0,-6.237l6.236,0l0,6.237z"/>
  <path id="svg_49" fill="#FFF1B1" d="m211.972,141.914l-6.235,0l0,-6.237l6.235,0l0,6.237z"/>
  <path id="svg_50" fill="#FFF1B1" d="m181.496,152.93l-6.236,0l0,-6.237l6.236,0l0,6.237z"/>
  <path id="svg_51" fill="#FFF1B1" d="m196.734,152.93l-6.236,0l0,-6.237l6.236,0l0,6.237z"/>
  <path id="svg_52" fill="#FFF1B1" d="m211.972,152.93l-6.235,0l0,-6.237l6.235,0l0,6.237z"/>
  <path id="svg_53" fill="#F9E586" d="m362.281,208.754l-45.732,0l0,-142.9079l45.732,0l0,142.9079z"/>
  <path id="svg_54" fill="#FFF1B1" d="m327.295,82.2468l-6.236,0l0,-6.2365l6.236,0l0,6.2365z"/>
  <path id="svg_55" fill="#FFF1B1" d="m342.533,82.2468l-6.236,0l0,-6.2365l6.236,0l0,6.2365z"/>
  <path id="svg_56" fill="#FFF1B1" d="m357.771,82.2468l-6.236,0l0,-6.2365l6.236,0l0,6.2365z"/>
  <path id="svg_57" fill="#FFF1B1" d="m327.295,93.2635l-6.236,0l0,-6.2364l6.236,0l0,6.2364z"/>
  <path id="svg_58" fill="#FFF1B1" d="m342.533,93.2635l-6.236,0l0,-6.2364l6.236,0l0,6.2364z"/>
  <path id="svg_59" fill="#FFF1B1" d="m357.771,93.2635l-6.236,0l0,-6.2364l6.236,0l0,6.2364z"/>
  <path id="svg_60" fill="#FFF1B1" d="m327.295,104.28l-6.236,0l0,-6.2374l6.236,0l0,6.2374z"/>
  <path id="svg_61" fill="#FFF1B1" d="m342.533,104.28l-6.236,0l0,-6.2374l6.236,0l0,6.2374z"/>
  <path id="svg_62" fill="#FFF1B1" d="m357.771,104.28l-6.236,0l0,-6.2374l6.236,0l0,6.2374z"/>
  <path id="svg_63" fill="#FFF1B1" d="m327.295,115.295l-6.236,0l0,-6.236l6.236,0l0,6.236z"/>
  <path id="svg_64" fill="#FFF1B1" d="m342.533,115.295l-6.236,0l0,-6.236l6.236,0l0,6.236z"/>
  <path id="svg_65" fill="#FFF1B1" d="m357.771,115.295l-6.236,0l0,-6.236l6.236,0l0,6.236z"/>
  <path id="svg_66" fill="#FFF1B1" d="m327.295,126.312l-6.236,0l0,-6.237l6.236,0l0,6.237z"/>
  <path id="svg_67" fill="#FFF1B1" d="m342.533,126.312l-6.236,0l0,-6.237l6.236,0l0,6.237z"/>
  <path id="svg_68" fill="#FFF1B1" d="m357.771,126.312l-6.236,0l0,-6.237l6.236,0l0,6.237z"/>
  <path id="svg_69" fill="#FFF1B1" d="m327.295,137.328l-6.236,0l0,-6.237l6.236,0l0,6.237z"/>
  <path id="svg_70" fill="#FFF1B1" d="m342.533,137.328l-6.236,0l0,-6.237l6.236,0l0,6.237z"/>
  <path id="svg_71" fill="#FFF1B1" d="m357.771,137.328l-6.236,0l0,-6.237l6.236,0l0,6.237z"/>
  <path id="svg_72" fill="#FFF1B1" d="m327.295,148.344l-6.236,0l0,-6.237l6.236,0l0,6.237z"/>
  <path id="svg_73" fill="#FFF1B1" d="m342.533,148.344l-6.236,0l0,-6.237l6.236,0l0,6.237z"/>
  <path id="svg_74" fill="#FFF1B1" d="m357.771,148.344l-6.236,0l0,-6.237l6.236,0l0,6.237z"/>
  <path id="svg_75" fill="#FFF1B1" d="m327.295,159.36l-6.236,0l0,-6.237l6.236,0l0,6.237z"/>
  <path id="svg_76" fill="#FFF1B1" d="m342.533,159.36l-6.236,0l0,-6.237l6.236,0l0,6.237z"/>
  <path id="svg_77" fill="#FFF1B1" d="m357.771,159.36l-6.236,0l0,-6.237l6.236,0l0,6.237z"/>
  <path id="svg_78" fill="#FFF1B1" d="m327.295,170.376l-6.236,0l0,-6.236l6.236,0l0,6.236z"/>
  <path id="svg_79" fill="#FFF1B1" d="m342.533,170.376l-6.236,0l0,-6.236l6.236,0l0,6.236z"/>
  <path id="svg_80" fill="#FFF1B1" d="m357.771,170.376l-6.236,0l0,-6.236l6.236,0l0,6.236z"/>
  <path id="svg_81" fill="#F9E586" d="m108.795,169.276l-56.5631,0l0,-142.9085l56.5631,0l0,142.9085z"/>
  <path id="svg_82" fill="#FFF1B1" d="m61.9858,123.26l-3.8173,0l0,-73.9182l3.8173,0l0,73.9182z"/>
  <path id="svg_83" fill="#FFF1B1" d="m72.2035,123.26l-3.8168,0l0,-73.9182l3.8168,0l0,73.9182z"/>
  <path id="svg_84" fill="#FFF1B1" d="m82.422,123.26l-3.8173,0l0,-73.9182l3.8173,0l0,73.9182z"/>
  <path id="svg_85" fill="#FFF1B1" d="m92.6405,123.26l-3.8173,0l0,-73.9182l3.8173,0l0,73.9182z"/>
  <path id="svg_86" fill="#FFF1B1" d="m102.859,123.26l-3.8173,0l0,-73.9182l3.8173,0l0,73.9182z"/>
  <path id="svg_87" fill="#E9EDFD" d="m108.795,42.1812l-56.5631,0l0,-7.9069l56.5631,0l0,7.9069z"/>
  <path id="svg_88" stroke-miterlimit="10" stroke-width="1.70287" stroke="#FFF1B1" d="m6.79922,87.3618c0,1.624 -1.29824,2.9406 -2.8995,2.9406c-1.60148,0 -2.89972,-1.3166 -2.89972,-2.9406c0,-1.6239 1.29824,-2.9406 2.89972,-2.9406c1.60126,0 2.8995,1.3167 2.8995,2.9406l0,0z"/>
  <path id="svg_89" stroke-miterlimit="10" stroke-width="1.70287" stroke="#FFF1B1" d="m351.151,24.2185c0,1.6239 -1.298,2.9406 -2.899,2.9406c-1.602,0 -2.9,-1.3167 -2.9,-2.9406c0,-1.624 1.298,-2.9406 2.9,-2.9406c1.601,0 2.899,1.3166 2.899,2.9406l0,0z"/>
  <path id="svg_90" stroke-miterlimit="10" stroke-width="1.70287" stroke="#FFF1B1" d="m214.799,54.9221c0,1.6838 -1.345,3.049 -3.005,3.049c-1.66,0 -3.006,-1.3652 -3.006,-3.049c0,-1.6838 1.346,-3.0484 3.006,-3.0484c1.66,0 3.005,1.3646 3.005,3.0484z"/>
  <path id="svg_91" stroke-miterlimit="10" stroke-width="1.33136" stroke="#FFF1B1" d="m42.3108,14.658l21.1033,0"/>
  <path id="svg_92" stroke-miterlimit="10" stroke-width="1.33136" stroke="#FFF1B1" d="m354.295,79.6572l18.31,0"/>
  <path id="svg_93" stroke-miterlimit="10" stroke-width="1.33136" stroke="#FFF1B1" d="m200.66,1l31.892,0"/>
  <path id="svg_94" fill="#EDAE10" d="m255.735,208.702l60.433,0c7.714,0 13.967,-6.254 13.967,-13.969l0,-160.8582c0,-7.7148 -6.253,-13.9691 -13.967,-13.9691l-60.433,0c-7.713,0 -13.967,6.2543 -13.967,13.9691l0,160.8582c0,7.715 6.254,13.969 13.967,13.969z"/>
  <path id="svg_95" fill="#F4BE05" d="m246.568,208.702l60.432,0c7.714,0 13.967,-6.254 13.967,-13.969l0,-160.8582c0,-7.7148 -6.253,-13.9691 -13.967,-13.9691l-60.432,0c-7.714,0 -13.968,6.2543 -13.968,13.9691l0,160.8582c0,7.715 6.254,13.969 13.968,13.969z"/>
  <path id="svg_96" fill="white" d="m246.484,204.47l60.599,0c5.311,0 9.615,-4.306 9.615,-9.617l0,-160.2136c0,-5.3113 -4.304,-9.617 -9.615,-9.617l-60.599,0c-5.31,0 -9.615,4.3057 -9.615,9.617l0,160.2136c0,5.311 4.305,9.617 9.615,9.617z"/>
  <path id="svg_97" fill="#F4BE05" d="m261.97,29.7454l28.972,0c1.435,0 2.597,-1.163 2.597,-2.5977l0,-4.2368l-34.166,0l0,4.2368c0,1.4347 1.162,2.5977 2.597,2.5977z"/>
  <path id="svg_98" stroke-linejoin="round" stroke-linecap="round" stroke-miterlimit="10" stroke-width="1.1578" stroke="#312220" d="m268.603,25.3917l13.394,0"/>
  <path id="svg_99" fill="#FFFBE7" d="m312.392,110.405l-71.153,0l0,-53.2961l71.153,0l0,53.2961z"/>
  <path id="svg_100" stroke-miterlimit="10" stroke-width="6.83467" stroke="white" d="m316.869,61.2093l-88.41,66.7577"/>
  <path id="svg_101" stroke-miterlimit="10" stroke-width="6.83467" stroke="white" d="m337.907,72.2319l-88.409,66.7581"/>
  <path id="svg_102" stroke-miterlimit="10" stroke-width="6.83467" stroke="white" d="m295.421,50.5188l-78.151,59.0122"/>
  <path id="svg_103" stroke-miterlimit="10" stroke-width="6.83467" stroke="white" d="m246.279,51.9934l32.754,48.1646c1.111,1.633 0.821,3.838 -0.674,5.129l-10.513,9.076c-4.794,4.139 -5.456,8.647 -1.499,13.592l16.969,23.89"/>
  <path id="svg_104" fill="#EDAE10" d="m300.851,51.844c0,-6.7843 -7.16,-11.8955 -14.335,-8.1872c-1.115,0.5764 -2.531,1.9685 -3.139,3.0673c-1.878,3.3973 -1.708,6.7476 -0.359,9.3949l-0.01,0l0.076,0.138c0.035,0.0653 0.071,0.1289 0.107,0.1931l8.228,14.8803l8.242,-14.9046c0.028,-0.0496 0.056,-0.0998 0.083,-0.1504l0.038,-0.0685l-0.005,0c0.683,-1.3053 1.074,-2.7875 1.074,-4.3629z"/>
  <path id="svg_105" fill="white" d="m295.597,51.7443c0,2.3081 -1.87,4.179 -4.178,4.179c-2.308,0 -4.179,-1.8709 -4.179,-4.179c0,-2.3082 1.871,-4.179 4.179,-4.179c2.308,0 4.178,1.8708 4.178,4.179z"/>
  <path id="svg_106" fill="black" d="m205.945,163.812l-9.768,0c-9.59,0 -17.364,10.062 -17.364,22.474c0,12.413 7.774,22.475 17.364,22.475l9.768,0c9.59,0 17.365,-10.062 17.365,-22.475c0,-12.412 -7.775,-22.474 -17.365,-22.474z"/>
  <path id="svg_107" fill="black" d="m327.765,163.812l-9.769,0c-9.589,0 -17.364,10.062 -17.364,22.474c0,12.413 7.775,22.475 17.364,22.475l9.769,0c9.59,0 17.364,-10.062 17.364,-22.475c0,-12.412 -7.774,-22.474 -17.364,-22.474z"/>
  <path id="svg_108" fill="black" d="m281.367,158.367l-72.009,0l0,32.21l72.009,0l0,-32.21z"/>
  <path id="svg_109" fill="black" d="m265.686,186.749c0,12.124 -7.593,21.953 -16.96,21.953c-9.368,0 -16.962,-9.829 -16.962,-21.953c0,-12.124 7.594,-21.953 16.962,-21.953c9.367,0 16.96,9.829 16.96,21.953z"/>
  <path id="svg_110" fill="black" d="m239.184,208.702l9.542,0l9.753,-9.756l-9.753,-34.15l-9.542,0l0,43.906z"/>
  <path id="svg_111" fill="#F4BE05" d="m256.145,186.749c0,12.124 -7.594,21.953 -16.961,21.953c-9.368,0 -16.962,-9.829 -16.962,-21.953c0,-12.124 7.594,-21.953 16.962,-21.953c9.367,0 16.961,9.829 16.961,21.953z"/>
  <path id="svg_112" fill="#B8B8C2" d="m246.2,186.286c0,6.134 -3.666,11.107 -8.188,11.107c-4.523,0 -8.189,-4.973 -8.189,-11.107c0,-6.134 3.666,-11.105 8.189,-11.105c4.522,0 8.188,4.971 8.188,11.105z"/>
  <path id="svg_113" fill="white" d="m250.012,186.286c0,6.134 -3.666,11.107 -8.188,11.107c-4.523,0 -8.189,-4.973 -8.189,-11.107c0,-6.134 3.666,-11.105 8.189,-11.105c4.522,0 8.188,4.971 8.188,11.105z"/>
  <path id="svg_114" fill="black" d="m159.549,158.367l-72.0094,0l0,32.21l72.0094,0l0,-32.21z"/>
  <path id="svg_115" fill="black" d="m143.867,186.749c0,12.124 -7.594,21.953 -16.962,21.953c-9.367,0 -16.96,-9.829 -16.96,-21.953c0,-12.124 7.593,-21.953 16.96,-21.953c9.368,0 16.962,9.829 16.962,21.953z"/>
  <path id="svg_116" fill="black" d="m117.364,208.702l9.542,0l9.754,-9.756l-9.754,-34.15l-9.542,0l0,43.906z"/>
  <path id="svg_117" fill="#F4BE05" d="m134.326,186.749c0,12.124 -7.594,21.953 -16.962,21.953c-9.367,0 -16.961,-9.829 -16.961,-21.953c0,-12.124 7.594,-21.953 16.961,-21.953c9.368,0 16.962,9.829 16.962,21.953z"/>
  <path id="svg_118" fill="#B8B8C2" d="m124.38,186.286c0,6.134 -3.665,11.107 -8.188,11.107c-4.522,0 -8.188,-4.973 -8.188,-11.107c0,-6.134 3.666,-11.105 8.188,-11.105c4.523,0 8.188,4.971 8.188,11.105z"/>
  <path id="svg_119" fill="white" d="m128.193,186.286c0,6.134 -3.666,11.107 -8.189,11.107c-4.522,0 -8.188,-4.973 -8.188,-11.107c0,-6.134 3.666,-11.105 8.188,-11.105c4.523,0 8.189,4.971 8.189,11.105z"/>
  <path id="svg_120" fill="#EDAE10" d="m76.1006,190.576l0,-38.138c0,-5.44 3.9893,-10.075 9.3759,-10.824c4.7283,-0.656 10.7818,-1.229 17.0475,-1.113c0,0 36.203,-22.257 49.479,-22.257l83.17,-0.428c11.133,-0.152 22.142,2.357 32.11,7.318l37.04,18.434l49.247,10.784c0,0 10.202,2.768 12.387,9.4c2.186,6.632 1.458,13.919 1.458,13.919l-108.164,0c0,0 -4.875,-15.328 -20.472,-15.328c-15.598,0 -19.822,18.809 -18.847,28.233l-81.722,0c0,0 0.325,-27.949 -20.797,-26.974c-21.1218,0.975 -19.497,26.974 -19.497,26.974l-21.8154,0z"/>
  <path id="svg_121" fill="#F3BD06" d="m76.9031,177.671c-2.8497,0 -5.1607,2.309 -5.1645,5.158l-0.0032,2.586c0,2.85 2.3105,5.161 5.1612,5.161l21.0192,0c0,0 -0.1073,-7.034 1.7563,-12.905l-22.769,0z"/>
  <path id="svg_122" fill="black" d="m203.349,107.305l-32.277,0c-2.689,0 -4.869,2.18 -4.869,4.869l0,6.071l42.014,0l0,-6.071c0,-2.689 -2.18,-4.869 -4.868,-4.869z"/>
  <path id="svg_123" fill="#F3BD06" d="m209.628,107.305l-32.277,0c-2.689,0 -4.868,2.18 -4.868,4.869l0,6.071l42.013,0l0,-6.071c0,-2.689 -2.18,-4.869 -4.868,-4.869z"/>
  <path id="svg_124" fill="black" d="m184.039,110.705l-2.001,0l0,-0.949l5.123,0l0,0.949l-2.001,0l0,5.088l-1.121,0l0,-5.088z"/>
  <path id="svg_125" fill="black" d="m191.898,113.517l-1.138,-2.64l-1.13,2.64l2.268,0zm0.371,0.879l-3.018,0l-0.595,1.397l-1.156,0l2.717,-6.037l1.103,0l2.726,6.037l-1.173,0l-0.604,-1.397z"/>
  <path id="svg_126" fill="black" d="m198.965,115.793l-1.638,-2.294l-1.622,2.294l-1.276,0l2.243,-3.079l-2.123,-2.958l1.269,0l1.543,2.147l1.526,-2.147l1.217,0l-2.113,2.915l2.268,3.122l-1.294,0z"/>
  <path id="svg_127" fill="black" d="m201.59,109.756l1.121,0l0,6.037l-1.121,0l0,-6.037z"/>
  <path id="svg_128" fill="black" d="m219.612,142.037l-32.867,-18.49c-2.791,-1.57 -5.94,-2.395 -9.144,-2.395l-19.571,0c-5.064,0 -10.025,1.431 -14.312,4.129l-31.225,17.721c-0.892,0.506 -0.533,1.867 0.492,1.867l105.885,0c1.556,0 2.098,-2.068 0.742,-2.832z"/>
  <path id="svg_129" stroke-linejoin="round" stroke-linecap="round" stroke-miterlimit="10" stroke-width="1.04803" stroke="black" d="m112.286,143.771l0,13.263c0,0 28.675,-5.776 31.581,27.09l65.491,0c0,0 -1.75,-32.127 10.342,-39.964"/>
  <path id="svg_130" stroke-linejoin="round" stroke-linecap="round" stroke-miterlimit="10" stroke-width="1.04803" stroke="black" d="m165.733,144.869c0,0 -6.832,3.031 -3.519,39.255"/>
  <path id="svg_131" fill="black" d="m176.267,151.289l-6.581,0c-0.72,0 -1.303,-0.584 -1.303,-1.304l0,-0.604c0,-0.72 0.583,-1.304 1.303,-1.304l6.581,0c0.721,0 1.304,0.584 1.304,1.304l0,0.604c0,0.72 -0.583,1.304 -1.304,1.304z"/>
  <path id="svg_132" fill="black" d="m126.834,151.289l-6.581,0c-0.72,0 -1.304,-0.584 -1.304,-1.304l0,-0.604c0,-0.72 0.584,-1.304 1.304,-1.304l6.581,0c0.72,0 1.304,0.584 1.304,1.304l0,0.604c0,0.72 -0.584,1.304 -1.304,1.304z"/>
  <path id="svg_133" fill="black" d="m199.24,124.894l37.619,19.975l63.955,0l-43.024,-21.041c-3.601,-1.761 -7.556,-2.676 -11.564,-2.676l-46.054,0c-2.071,0 -2.76,2.77 -0.932,3.742z"/>
  <path id="svg_134" stroke-linejoin="round" stroke-linecap="round" stroke-miterlimit="10" stroke-width="1.04803" stroke="black" d="m246.2,148.077l59.2,0"/>
  <path id="svg_135" fill="#5E5E5E" d="m211.42,121.152l41.758,23.717l13.935,0l-41.745,-23.717l-13.948,0z"/>
  <path id="svg_136" fill="#5E5E5E" d="m237.432,121.152l41.759,23.717l4.529,0l-41.745,-23.717l-4.543,0z"/>
  <path id="svg_137" fill="#F3BD06" d="m361.07,190.576l-96.668,0c-2.851,0 -5.162,-2.311 -5.162,-5.161l0.011,-7.744l108.164,0l-0.087,6.647c0,3.456 -2.801,6.258 -6.258,6.258z"/>
  <path id="svg_138" fill="white" d="m335.976,181.379l-17.548,0l0,-5.31l17.548,0l0,5.31z"/>
  <path id="svg_139" stroke-linejoin="round" stroke-linecap="round" stroke-miterlimit="10" stroke-width="1.04803" stroke="black" d="m297.616,165.482l51.723,0"/>
  <path id="svg_140" stroke-linejoin="round" stroke-linecap="round" stroke-miterlimit="10" stroke-width="1.04803" stroke="black" d="m307.056,169.432l33.994,0"/>
  <path id="svg_141" stroke-linejoin="round" stroke-linecap="round" stroke-miterlimit="10" stroke-width="1.04803" stroke="black" d="m307.056,173.366l33.994,0"/>
  <path id="svg_142" fill="white" d="m299.774,173.961l-22.576,0c-1.908,0 -3.454,-1.546 -3.454,-3.454l0,-3.241c0,-1.908 1.546,-3.454 3.454,-3.454l22.576,0c1.908,0 3.454,1.546 3.454,3.454l0,3.241c0,1.908 -1.546,3.454 -3.454,3.454z"/>
  <path id="svg_143" fill="white" d="m365.991,163.812l-17.124,0c-1.907,0 -3.454,1.546 -3.454,3.454l0,3.241c0,1.908 1.547,3.454 3.454,3.454l18.663,0c0.152,-6.815 -1.309,-9.732 -1.539,-10.149z"/>
  <path id="svg_144" stroke-linejoin="round" stroke-linecap="round" stroke-miterlimit="10" stroke-width="1.04803" stroke="black" d="m273.744,170.507l29.484,0"/>
  <path id="svg_145" stroke-linejoin="round" stroke-linecap="round" stroke-miterlimit="10" stroke-width="1.04803" stroke="black" d="m345.413,170.507l22.001,0"/>
  <path id="svg_146" fill="#EDAE10" d="m163.112,24.3203c0,-10.0521 -10.61,-17.62624 -21.241,-12.1316c-1.652,0.854 -3.751,2.9174 -4.65,4.5451c-2.782,5.0336 -2.532,9.9977 -0.533,13.9201l-0.014,0l0.113,0.2049c0.051,0.0965 0.105,0.1914 0.158,0.2863l12.191,22.0479l12.212,-22.0835c0.041,-0.0744 0.083,-0.1478 0.123,-0.2232l0.056,-0.1014l-0.007,0c1.012,-1.9345 1.592,-4.1305 1.592,-6.4646z"/>
  <path id="svg_147" fill="white" d="m155.328,24.1721c0,3.4199 -2.773,6.1928 -6.192,6.1928c-3.419,0 -6.191,-2.7729 -6.191,-6.1928c0,-3.4193 2.772,-6.1922 6.191,-6.1922c3.419,0 6.192,2.7729 6.192,6.1922z"/>
  <path id="svg_148" fill="#101010" d="m98.0339,197.809l8.7191,0l14.418,7.714l-24.7921,-0.295l1.655,-7.419z"/>
  <path id="svg_149" fill="white" d="m96.2925,208.491l0.0862,-3.263l24.7913,0.295l-0.085,3.263l-24.7925,-0.295z"/>
  <path id="svg_150" stroke-linejoin="round" stroke-linecap="round" stroke-miterlimit="10" stroke-width="1.94209" stroke="white" d="m112.778,200.65l-2.856,0.781"/>
  <path id="svg_151" stroke-linejoin="round" stroke-linecap="round" stroke-miterlimit="10" stroke-width="1.94209" stroke="white" d="m109.986,199.217l-2.857,0.781"/>
  <path id="svg_152" fill="#EBB28B" d="m107.675,185.516l-8.8863,0l-0.7548,12.293l8.8861,0l0.755,-12.293z"/>
  <path id="svg_153" fill="#FFF1B1" d="m113.49,104.741l-5.48,89.116l-12.3735,0l2.138,-89.116l15.7155,0z"/>
  <path id="svg_154" fill="#101010" d="m77.9963,197.809l8.7187,0l14.419,7.714l-24.7927,-0.295l1.655,-7.419z"/>
  <path id="svg_155" fill="white" d="m76.2559,208.491l0.0857,-3.263l24.7924,0.295l-0.086,3.263l-24.7921,-0.295z"/>
  <path id="svg_156" stroke-linejoin="round" stroke-linecap="round" stroke-miterlimit="10" stroke-width="1.94209" stroke="white" d="m92.7411,200.65l-2.8561,0.781"/>
  <path id="svg_157" stroke-linejoin="round" stroke-linecap="round" stroke-miterlimit="10" stroke-width="1.94209" stroke="white" d="m89.9492,199.217l-2.8567,0.781"/>
  <path id="svg_158" fill="#EBB28B" d="m88.5205,185.516l-8.8864,0l-1.6378,12.293l8.887,0l1.6372,-12.293z"/>
  <path id="svg_159" fill="#FFF1B1" d="m87.2881,104.741l-12.1155,89.116l13.5263,0l17.6101,-89.116l-19.0209,0z"/>
  <path id="svg_160" stroke-linejoin="round" stroke-linecap="round" stroke-miterlimit="10" stroke-width="0.85018" stroke="#171717" d="m96.5957,153.897l6.9143,-34.993l5.048,-3.29"/>
  <path id="svg_161" stroke-linejoin="round" stroke-linecap="round" stroke-miterlimit="10" stroke-width="0.85018" stroke="#171717" d="m85.5125,117.804l7.5559,-5.949"/>
  <path id="svg_162" fill="#EBB28B" d="m115.818,70.871l13.766,18.0776c1.522,1.7016 1.617,4.2465 0.225,6.0564c-1.755,2.2818 -5.12,2.4872 -7.14,0.4357l-14.794,-17.112c-2.029,-2.0606 -2.095,-5.3468 -0.151,-7.4878l0.001,0c2.173,-2.3923 5.938,-2.3777 8.093,0.0301z"/>
  <path id="svg_163" fill="#F4BE05" d="m109.076,64.0135c0,0 6.73,0.84 11.882,10.8285l-7.915,9.4892l-3.967,-20.3177z"/>
  <path id="svg_164" fill="#EBB28B" d="m120.146,89.6905l18.871,-11.8368l3.757,3.8793l-13.681,14.0204l-8.947,-6.0629z"/>
  <path id="svg_165" fill="#EBB28B" d="m142.04,70.4575l9.357,2.7303c0,0 0,7.2529 -8.631,8.5641c-0.472,0.0717 -2.596,-0.7414 -2.962,-1.067l-1.436,-4.0949c-0.509,-0.6713 -0.466,-1.6111 0.103,-2.2327l3.569,-3.8998z"/>
  <path id="svg_166" fill="#E9B0A0" d="m141.266,71.6641l3.31,-4.3462c0.492,-0.6065 1.333,-0.7338 1.89,-0.2868c0.534,0.4292 0.621,1.2401 0.199,1.8596l-3.057,4.7673l-2.342,-1.9939z"/>
  <path id="svg_167" fill="#E9B0A0" d="m145.267,75.1315l3.977,-3.9251c0.55,-0.5515 1.366,-0.6082 1.834,-0.1267c0.449,0.4621 0.422,1.26 -0.063,1.8299l-3.794,4.357l-1.954,-2.1351z"/>
  <path id="svg_168" fill="#E9B0A0" d="m143.736,72.4502l3.757,-3.7121c0.554,-0.5472 1.395,-0.571 1.891,-0.0534c0.475,0.4961 0.466,1.3199 -0.02,1.8892l-3.559,4.1662l-2.069,-2.2899z"/>
  <path id="svg_169" fill="#36438D" d="m150.06,61.0507l1.49,0.096l0,9.7809l-5.229,8.1878l-1.589,-0.13l2.805,-10.285l2.523,-7.6497z"/>
  <path id="svg_170" fill="#050907" d="m141.297,74.6269l4.369,4.1197c0.4,0.4971 1.159,0.4906 1.55,-0.0135l9.514,-11.8766c0.233,-0.3004 0.229,-0.7209 -0.009,-1.0169l-4.584,-4.3861c-0.332,-0.4135 -0.963,-0.4076 -1.288,0.0113l-9.563,11.9398c-0.28,0.3607 -0.276,0.8664 0.011,1.2223z"/>
  <path id="svg_171" fill="white" d="m139.843,74.5303l4.37,4.1198c0.399,0.4971 1.158,0.4901 1.548,-0.0141l9.515,-11.8761c0.233,-0.3003 0.229,-0.7208 -0.009,-1.0168l-4.584,-4.3861c-0.332,-0.4135 -0.964,-0.4076 -1.288,0.0113l-9.563,11.9398c-0.28,0.3607 -0.276,0.8664 0.011,1.2222z"/>
  <path id="svg_172" fill="#EBB28B" d="m139.377,77.9211c-0.512,-0.2517 -1.791,-1.5856 -1.565,-3.6075c0.297,-2.6607 1.672,-4.6761 1.672,-4.6761c0.456,-0.8568 0.986,-1.2714 1.728,-1.1679c0.804,0.1127 1.32,0.9689 1.176,1.5636l-0.838,1.858c0,0 0.922,2.3556 -1.008,5.9259l-1.165,0.104z"/>
  <path id="svg_173" fill="#F4BE05" d="m96.4138,62.0973c0,0 -5.0901,1.1894 -8.7192,3.0198c-2.2847,1.1527 -2.5381,3.6431 -2.2507,6.1858l1.8442,33.4381l26.2019,0l1.833,-32.3048c0.252,-3.5439 -1.829,-7.0171 -5.193,-8.1602c-3.768,-1.281 -6.148,-2.5006 -8.153,-2.6171l-5.5632,0.4384z"/>
  <path id="svg_174" stroke-linejoin="round" stroke-linecap="round" stroke-miterlimit="10" stroke-width="0.85018" stroke="#171717" d="m114.767,82.2641l0.556,-9.8278"/>
  <path id="svg_175" fill="#EBB28B" d="m96.4139,62.0973l-3.0211,0.8303c0,0 2.2437,4.3241 10.3942,3.5924c5.716,-0.5127 3.413,-3.3094 3.413,-3.3094l-2.844,-1.0292l-7.9421,-0.0841z"/>
  <path id="svg_176" fill="#EBB28B" d="m71.6534,81.2942l13.5295,19.9218l-3.6437,3.986l-14.935,-14.6353l5.0492,-9.2725z"/>
  <path id="svg_177" fill="#EBB28B" d="m97.6145,102.122l-5.7872,-2.9428l0.5682,-1.2703c0.207,-0.462 0.0787,-1.006 -0.3127,-1.3274c-0.4043,-0.3321 -0.9838,-0.3413 -1.3983,-0.0221l-5.6999,4.4766l-3.4453,4.166c3.1262,2.677 5.1694,2.644 6.3467,2.126c0.1375,0.045 0.2733,0.096 0.413,0.135l4.8097,1.38c0.4448,0.192 0.9623,0.004 1.1801,-0.428c0.1585,-0.314 0.2146,-0.817 -0.711,-1.287l0.9256,0.47c0.4706,0.203 1.0172,-0.002 1.2366,-0.466c0.2071,-0.409 -0.0469,-0.95 -0.5903,-1.303l0.7084,0.278c0.5132,0.221 1.1175,-0.031 1.31,-0.575c0.166,-0.471 -0.083,-0.991 -0.5289,-1.217l-1.0226,-0.517l1.2146,0.294c0.559,0.197 1.1827,-0.101 1.366,-0.687c0.1574,-0.503 -0.1132,-1.044 -0.5827,-1.283z"/>
  <path id="svg_178" stroke-linejoin="round" stroke-linecap="round" stroke-miterlimit="10" stroke-width="0.55212" stroke="#171717" d="m95.9243,103.943l-3.4216,-1.615"/>
  <path id="svg_179" stroke-linejoin="round" stroke-linecap="round" stroke-miterlimit="10" stroke-width="0.55212" stroke="#171717" d="m95.0043,105.768l-3.2987,-1.374"/>
  <path id="svg_180" stroke-linejoin="round" stroke-linecap="round" stroke-miterlimit="10" stroke-width="0.55212" stroke="#171717" d="m93.8841,107.249l-2.7952,-1.103"/>
  <path id="svg_181" fill="#EBB28B" d="m90.63,75.8028l-17.2051,14.8409c-1.6054,1.6234 -4.1397,1.8725 -6.0308,0.5926c-2.3839,-1.6132 -2.793,-4.9609 -0.8685,-7.1013l16.1787,-15.8088c1.9332,-2.1507 5.2092,-2.416 7.4637,-0.6049c2.5197,2.024 2.7348,5.7835 0.462,8.0815z"/>
  <path id="svg_182" fill="#F4BE05" d="m91.4058,63.5772c0,0 -8.9791,1.755 -16.3453,11.0949l7.8066,10.1778l11.1926,-8.0163l-2.6539,-13.2564z"/>
  <path id="svg_183" stroke-linejoin="round" stroke-linecap="round" stroke-miterlimit="10" stroke-width="0.85018" stroke="#171717" d="m86.6667,82.1282l6.4929,-4.6503"/>
  <path id="svg_184" fill="#EDAE10" d="m110.332,34.0258c0,0 3.031,2.7093 0.516,8.7921l-4.162,-8.2125l3.646,-0.5796z"/>
  <path id="svg_185" fill="#EDAE10" d="m93.3496,34.7596c0,0 -3.5402,-0.385 -4.3439,5.0757c-0.8038,5.4611 3.2086,8.7252 7.6626,11.3655l-3.3187,-16.4412z"/>
  <path id="svg_186" fill="#EDAE10" d="m110.888,41.7396c0,5.7405 -4.548,10.3939 -10.157,10.3939c-5.6102,0 -10.158,-4.6534 -10.158,-10.3939c0,-5.7399 4.5478,-10.3934 10.158,-10.3934c5.609,0 10.157,4.6535 10.157,10.3934z"/>
  <path id="svg_187" fill="#DD8161" d="m107.292,46.2168c0.454,1.349 1.915,2.0747 3.263,1.6213c1.349,-0.4535 2.075,-1.9146 1.621,-3.2636c-0.453,-1.349 -1.914,-2.0752 -3.263,-1.6212c-1.349,0.4534 -2.074,1.9145 -1.621,3.2635z"/>
  <path id="svg_188" fill="#EBB28B" d="m104.404,52.1967l0.151,11.2135l-8.3626,-1.3825l0.6075,-16.0826l7.6041,6.2516z"/>
  <path id="svg_189" fill="#171717" d="m104.485,57.8783l-5.8737,-5.7448l6.0597,1.0643l-0.186,4.6805z"/>
  <path id="svg_190" fill="#EBB28B" d="m109.675,36.7464c0,0 2.262,9.0321 1.24,12.4994c-1.021,3.4679 -3.713,5.7157 -8.21,4.9781c0,0 -5.1854,-0.0992 -6.718,-7.7467c-2.3074,-11.5133 8.111,-15.7284 13.688,-9.7308z"/>
  <path id="svg_191" fill="#EDAE10" d="m97.4393,46.4707c0,0 3.3187,-7.6238 -0.2857,-9.1102c-1.0814,-0.4459 -1.7154,-0.6724 -2.2265,3.1487c-0.5116,3.8205 0.8227,4.4459 0.8227,4.4459l1.6895,1.5156z"/>
  <path id="svg_192" fill="#EBB28B" d="m92.8501,47.3463c0.469,1.3943 1.9785,2.1443 3.3726,1.6758c1.3941,-0.4691 2.1439,-1.9793 1.6755,-3.373c-0.4685,-1.3943 -1.9785,-2.1448 -3.3726,-1.6763c-1.3935,0.4691 -2.1439,1.9793 -1.6755,3.3735z"/>
  <path id="svg_193" stroke-linejoin="round" stroke-linecap="round" stroke-miterlimit="10" stroke-width="0.52589" stroke="#171717" d="m94.1504,45.7558c0,0 1.9342,-0.619 2.5181,1.5129"/>
  <path id="svg_194" stroke-linejoin="round" stroke-linecap="round" stroke-miterlimit="10" stroke-width="0.49708" stroke="#1E0B07" d="m107.819,45.4609l0.578,1.9502c0.028,0.145 -0.062,0.2862 -0.205,0.3213l-0.655,0.1051"/>
  <path id="svg_195" fill="#171717" d="m103.753,44.8506c-0.021,0.3553 0.25,0.6604 0.604,0.6815c0.356,0.0215 0.661,-0.2491 0.682,-0.6044c0.021,-0.3548 -0.249,-0.66 -0.604,-0.6815c-0.355,-0.0211 -0.66,0.2496 -0.682,0.6044z"/>
  <path id="svg_196" fill="#171717" d="m109.138,44.7055c-0.02,0.3294 0.231,0.6119 0.561,0.6319c0.329,0.0199 0.612,-0.2313 0.632,-0.5602c0.019,-0.3294 -0.232,-0.6125 -0.561,-0.6324c-0.329,-0.0195 -0.612,0.2313 -0.632,0.5607z"/>
  <path id="svg_197" fill="#171717" d="m105.611,40.4892l-4.852,1.5512c0,0 1.078,-1.4821 2.478,-1.9221c1.399,-0.44 2.374,0.3709 2.374,0.3709z"/>
  <path id="svg_198" fill="#171717" d="m108.333,40.375l2.555,0.8238c0,0 -0.439,-1.0924 -1.177,-1.3242c-0.737,-0.2313 -1.378,0.5004 -1.378,0.5004z"/>
  <path id="svg_199" fill="white" d="m104.396,48.3211c0,0 1.787,0.9101 3.573,0.9101c0,0 -2.43,1.7647 -3.573,-0.9101z"/>
  <path id="svg_200" fill="#EDAE10" d="m96.0743,37.4479c0,0 2.6992,2.3259 9.3817,0.9796c6.681,-1.3468 6.945,-5.8763 6.14,-7.4679c0,0 -2.459,1.9092 -6.51,0.8653c-2.26,-0.5828 -7.3066,-2.7066 -10.3368,-0.4318c-1.0442,0.7845 -1.6512,2.0849 -1.3995,3.3665c0.1946,0.9915 0.8566,2.1238 2.7246,2.6883z"/>
  <path id="svg_201" stroke-miterlimit="10" stroke-width="3.82461" stroke="#101010" d="m65.6625,155.731l-17.3932,0l0,-37.265c0,-3.726 3.0194,-6.745 6.744,-6.745l3.9057,0c3.7246,0 6.7435,3.019 6.7435,6.745l0,37.265z"/>
  <path id="svg_202" fill="#101010" d="m52.105,204.747c0,2.23 -1.8081,4.039 -4.0384,4.039c-2.2302,0 -4.0383,-1.809 -4.0383,-4.039c0,-2.23 1.8081,-4.039 4.0383,-4.039c2.2303,0 4.0384,1.809 4.0384,4.039z"/>
  <path id="svg_203" fill="#101010" d="m69.9041,204.747c0,2.23 -1.8081,4.039 -4.0389,4.039c-2.2302,0 -4.0383,-1.809 -4.0383,-4.039c0,-2.23 1.8081,-4.039 4.0383,-4.039c2.2308,0 4.0389,1.809 4.0389,4.039z"/>
  <path id="svg_204" fill="#F4BE05" d="m70.7759,203.8l-27.6198,0c-3.9409,0 -7.1356,-3.195 -7.1356,-7.136l0,-46.594c0,-3.942 3.1947,-7.137 7.1356,-7.137l27.6198,0c3.9413,0 7.1359,3.195 7.1359,7.137l0,46.594c0,3.941 -3.1946,7.136 -7.1359,7.136z"/>
  <path id="svg_205" stroke-linejoin="round" stroke-linecap="round" stroke-miterlimit="10" stroke-width="0.8172" stroke="#171717" d="m44.7355,194.631l-1.5294,0l0,-42.072l1.5294,0l0,42.072z"/>
  <path id="svg_206" stroke-linejoin="round" stroke-linecap="round" stroke-miterlimit="10" stroke-width="0.8172" stroke="#171717" d="m52.87,194.631l-1.5294,0l0,-42.072l1.5294,0l0,42.072z"/>
  <path id="svg_207" stroke-linejoin="round" stroke-linecap="round" stroke-miterlimit="10" stroke-width="0.8172" stroke="#171717" d="m61.0043,194.631l-1.5294,0l0,-42.072l1.5294,0l0,42.072z"/>
  <path id="svg_208" stroke-linejoin="round" stroke-linecap="round" stroke-miterlimit="10" stroke-width="0.8172" stroke="#171717" d="m69.1385,194.631l-1.5294,0l0,-42.072l1.5294,0l0,42.072z"/>
  <path id="svg_209" stroke-linejoin="round" stroke-linecap="round" stroke-miterlimit="10" stroke-width="1.30461" stroke="black" d="m9.72119,208.761l364.27881,0"/>
 </g>
</svg>