<svg width="365" height="225" xmlns="http://www.w3.org/2000/svg" fill="none">

 <g>
  <title>Layer 1</title>
  <path id="svg_1" fill="#FFF1B1" d="m176.108,22.6523c84.8,-28.62726 167.877,-9.7835 185.558,42.0878c17.681,51.8719 -36.729,117.1289 -121.528,145.7559c-84.8,28.627 -167.8766,9.783 -185.5583,-42.088c-17.681,-51.871 36.7291,-117.1292 121.5283,-145.7557z" clip-rule="evenodd" fill-rule="evenodd"/>
  <path id="svg_2" fill="#F4BE05" d="m342.253,46.5886c10.361,-3.4984 20.388,-1.562 22.395,4.3252c2.006,5.8871 -4.766,13.4953 -15.129,16.9931c-10.362,3.4984 -20.389,1.562 -22.395,-4.3252c-2.007,-5.8871 4.767,-13.4953 15.129,-16.9931z" clip-rule="evenodd" fill-rule="evenodd"/>
  <path id="svg_3" fill="#F4BE05" d="m327.063,33.7343c5.267,1.7981 8.502,6.261 7.224,9.9685c-1.277,3.7069 -6.583,5.2549 -11.851,3.4561c-5.268,-1.7975 -8.503,-6.2604 -7.224,-9.9679c1.277,-3.7068 6.584,-5.2549 11.851,-3.4567z" clip-rule="evenodd" fill-rule="evenodd"/>
  <path id="svg_4" fill="#F4BE05" d="m343.558,33.649c2.826,-0.9543 5.687,-0.0549 6.39,2.0079c0.704,2.0634 -1.017,4.5096 -3.843,5.4633c-2.827,0.9544 -5.687,0.055 -6.391,-2.0085c-0.703,-2.0628 1.018,-4.509 3.844,-5.4627z" clip-rule="evenodd" fill-rule="evenodd"/>
  <path id="svg_5" fill="#E1E2DF" d="m39.989,108.592c-4.1145,7.843 -11.0964,12.306 -15.5962,9.969c-4.4991,-2.337 -4.8113,-10.59 -0.6968,-18.433c4.1138,-7.8426 11.0964,-12.3061 15.5948,-9.9686c4.4998,2.3369 4.8114,10.5896 0.6982,18.4326z" clip-rule="evenodd" fill-rule="evenodd"/>
  <path id="svg_6" fill="#FFFBE7" d="m22.8961,77.2868c4.1627,1.6263 6.6004,5.3199 5.4447,8.2499c-1.1557,2.93 -5.4676,3.986 -9.6303,2.3597c-4.1634,-1.6264 -6.6011,-5.32 -5.4454,-8.25c1.1564,-2.9299 5.4676,-3.9866 9.631,-2.3596z" clip-rule="evenodd" fill-rule="evenodd"/>
  <path id="svg_7" fill="#E1E2DF" d="m32.2162,68.7868c1.1239,-2.3338 3.4297,-3.5604 5.1496,-2.7393c1.7206,0.8198 2.2035,3.3772 1.0796,5.7109c-1.124,2.3331 -3.4297,3.5597 -5.1497,2.7393c-1.7199,-0.8205 -2.2035,-3.3778 -1.0795,-5.7109z" clip-rule="evenodd" fill-rule="evenodd"/>
  <path id="svg_8" fill="#FFFBE7" d="m141.337,15.171c71.926,24.0822 144.277,-28.2432 166.887,55.7341c13.209,49.0579 -86.899,65.9979 -145.527,73.5289c-58.627,7.53 -110.6199,-18.677 -116.1287,-58.5372c-5.5082,-39.8596 22.8427,-94.80802 94.7687,-70.7258z" clip-rule="evenodd" fill-rule="evenodd"/>
  <path id="svg_9" fill="white" d="m136.16,102.897l2.812,28.848l15.036,4.82l0.95,-32.908l-18.798,-0.76zm116.868,-12.4931l29.697,6.1511l0.124,-11.3814l-28.477,-8.723l-1.344,13.9533zm-50.154,-37.2201l-4.24,33.661l0.42,23.4092l-0.116,0.998l16.684,2.706l6.188,-56.8659l-18.936,-3.9083zm2.464,-19.555l-1.819,14.4441l18.85,3.8906l1.685,-15.4855l-18.716,-2.8492zm-38.575,-3.1971l-6.448,38.6134l-0.177,6.1701l34.495,8.3573l6.353,-50.4338l-34.223,-2.707zm-37.177,-8.3662l4.112,55.5624l-0.002,0l1.959,20.0949l19.452,0.7857l0.87,-30.1323l6.452,-38.6374l-32.843,-7.6733zm-36.6036,34.6735l-6.4266,16.5548l43.3122,10.1296l-0.515,-5.2808l-0.008,-0.0707l-0.908,-12.2657l-35.4546,-9.0672zm-10.8197,15.5272l6.4608,-16.642l-25.7919,-6.5957l-4.369,17.6948l23.7001,5.5429zm50.5603,40.4398l-25.068,-0.038l-3.639,17.395l30.501,1.054l-1.794,-18.411zm-52.9701,-6.326l26.2721,1.136l26.196,0.04l-1.828,-18.7457l-45.7114,-10.691l-7.6267,19.6465l4.1,4.0212l-1.402,4.593zm-10.3583,-83.933l-5.3362,21.6114l63.9796,16.3616l-3.674,-49.6494c1.463,0.2628 2.946,0.559 4.452,0.8944l0.373,5.0446l34.086,7.9625l0.701,-4.2007c1.453,0.2109 2.905,0.4061 4.354,0.5747l-0.715,4.281l34.017,2.6912l0.752,-5.9749c1.485,-0.0492 2.964,-0.1055 4.435,-0.1674l-0.84,6.6577l18.63,2.8372l1.133,-10.4138c1.482,-0.0682 2.95,-0.127 4.409,-0.1813l-7.53,69.1979l18.509,2.3906l6.614,-71.6561c1.471,0.0625 2.926,0.1466 4.363,0.2577l-6.272,67.9474l2.888,0.5987l1.882,-19.5372l32.301,9.8946l0.533,-49.2167c1.483,1.0138 2.922,2.126 4.318,3.3393l-0.346,31.9134l18.57,-2.4159c0.54,1.5967 1.052,3.273 1.549,4.9871l-20.176,2.625l-0.439,40.5804c-1.41,0.874 -2.871,1.727 -4.382,2.558l0.135,-12.452l-37.308,-7.7291l-0.46,4.9814l-6.494,23.6627l3.634,7.001c-1.488,0.41 -2.985,0.811 -4.49,1.204l-3.912,-7.538l6.977,-25.4249l0.041,-0.4534l-18.592,-2.4014l-2.685,24.6797l-21.032,-3.411l-2.698,23.27c-1.502,0.252 -2.996,0.494 -4.482,0.733l3.527,-30.435l-0.381,-21.1729l-34.326,-8.3162l-1.661,57.5111l6.174,1.98l14.288,2.317c-5.606,0.809 -11.007,1.535 -16.091,2.188c-0.201,0.026 -0.401,0.047 -0.603,0.072l-22.584,-7.24l0.822,8.435c-1.476,-0.023 -2.946,-0.063 -4.405,-0.129l-0.906,-9.284l-32.076,-1.11l-0.973,4.653c-1.421,-0.437 -2.8207,-0.899 -4.2024,-1.381l0.7165,-3.426l-10.1437,-0.351c-3.662,-1.669 -7.14,-3.512 -10.4186,-5.513l21.633,0.748l3.6312,-17.359l-24.9881,-1.081l-4.5537,14.916c-1.2985,-0.9 -2.5558,-1.83 -3.7769,-2.785l6.1492,-20.143l-4.3195,-4.2357l8.5908,-22.128l-23.0559,-5.392l-6.8366,27.6899c-1.0808,-2.4695 -1.9693,-5.0123 -2.6541,-7.6227l15.7211,-63.6753c1.8278,-2.0059 3.8042,-3.8944 5.9303,-5.6452z" clip-rule="evenodd" fill-rule="evenodd"/>
  <path id="svg_10" fill="#E1E2DF" d="m75.5565,198.091c-38.5575,1.094 -63.2718,2.778 -63.2718,4.667c0,2.116 30.9695,3.974 77.6684,5.034c-5.2569,-2.871 -10.0765,-6.109 -14.3966,-9.701z" clip-rule="evenodd" fill-rule="evenodd"/>
  <path id="svg_11" fill="#F4BE05" d="m180.14,196.792c-39.551,0 -75.9,0.486 -104.588,1.3c4.3208,3.591 9.1397,6.83 14.396,9.7c26.051,0.592 56.995,0.934 90.192,0.934c23.584,0 46.026,-0.173 66.39,-0.485c8.584,-3.141 16.834,-6.656 24.705,-10.495c-26.238,-0.604 -57.512,-0.954 -91.095,-0.954z" clip-rule="evenodd" fill-rule="evenodd"/>
  <path id="svg_12" fill="#F6CD56" d="m98.5896,116.778c-15.362,5.019 -41.3938,7.703 -60.2731,13.42c-18.8792,5.719 -26.0318,16.339 -26.0318,19.372c0,3.034 0,13.654 0,18.555c0,4.901 6.271,9.746 15.7129,15.171c9.4418,5.425 17.8238,4.318 22.6313,4.318l2.0639,0c-1.1779,-3.251 -1.8221,-6.756 -1.8221,-10.41c0,-16.941 13.8007,-30.674 30.8242,-30.674c17.0235,0 30.8231,13.733 30.8231,30.674c0,3.654 -0.643,7.159 -1.821,10.41l163.052,0c-1.178,-3.251 -1.821,-6.756 -1.821,-10.41c0,-16.941 13.8,-30.674 30.823,-30.674c10.17,0 19.189,4.903 24.803,12.462c5.763,-5.591 10.94,-11.374 15.475,-17.282c-0.189,-1.378 -0.3,-2.695 -0.3,-3.926c0,-11.786 -22.866,-35.242 -26.501,-38.9768c-3.635,-3.734 -8.208,-8.1684 -7.739,-9.9192c0.469,-1.7502 5.488,-0.823 5.863,-2.2176c0.375,-1.3939 -11.14,-3.734 -23.922,-5.834c-12.781,-2.1007 -51.713,-6.0684 -77.628,-4.6682c-25.914,1.4003 -40.455,5.0181 -61.093,14.5874c-20.638,9.5684 -32.951,17.8544 -53.1194,26.0224z" clip-rule="evenodd" fill-rule="evenodd"/>
  <path id="svg_13" fill="#EDAE10" d="m192.314,163.737c-32.775,0 -59.344,0.739 -59.344,1.649c0,0.911 26.569,1.649 59.344,1.649c32.775,0 59.344,-0.738 59.344,-1.649c0,-0.91 -26.569,-1.649 -59.344,-1.649z" clip-rule="evenodd" fill-rule="evenodd"/>
  <path id="svg_14" fill="#F3BD06" d="m342.735,138.171c-0.003,-0.13 -0.006,-0.26 -0.006,-0.387c0,-0.175 -0.006,-0.353 -0.015,-0.534c-3.551,0.769 -8.127,1.975 -12.845,4.763c-1.18,0.697 -2.409,1.576 -3.724,2.518c-2.633,1.885 -5.619,4.022 -9.277,5.398c0.355,0.183 0.705,0.373 1.053,0.568c3.413,-1.41 6.24,-3.433 8.755,-5.233c1.289,-0.924 2.494,-1.786 3.655,-2.472c4.528,-2.674 8.943,-3.863 12.404,-4.621z" clip-rule="evenodd" fill-rule="evenodd"/>
  <path id="svg_15" fill="#EDAE10" d="m341.631,132.585c-2.006,-5.42 -6.49,-11.918 -11.175,-17.794c-5.068,-0.703 -7.24,-0.803 -7.672,0.579c-0.568,1.825 9.004,14.93 14.087,16.533c1.51,0.476 3.17,0.659 4.76,0.682z" clip-rule="evenodd" fill-rule="evenodd"/>
  <path id="svg_16" fill="white" d="m40.6355,129.522c-0.7838,0.222 -1.5581,0.446 -2.319,0.676c-13.6071,4.122 -21.1221,10.79 -24.2586,15.328c7.6527,3.198 26.1791,-1.685 30.7556,-2.824c5.4568,-1.358 4.1976,-8.981 2.6237,-10.911c-1.7231,-1.665 -4.0923,-2.313 -6.8017,-2.269z" clip-rule="evenodd" fill-rule="evenodd"/>
  <path id="svg_17" fill="#EDAE10" d="m312.138,119.423c-4.017,4.371 -55.661,4.202 -69.659,4.204c-29.279,0.005 -95.243,5.334 -95.243,4.441c0,-1.641 9.591,-2.082 31.65,-4.316c11.215,-1.135 25.653,-2.309 43.691,-3.268c53.519,-2.846 95.405,-7.423 89.561,-1.061z" clip-rule="evenodd" fill-rule="evenodd"/>
  <path id="svg_18" fill="#EDEEED" d="m36.2107,132.733c-2.5793,0 -6.8131,2.735 -9.4577,6.109c-2.6447,3.374 -2.6973,6.109 -0.1187,6.109c2.5792,0 6.8137,-2.735 9.4583,-6.109c2.644,-3.374 2.6973,-6.109 0.1181,-6.109z" clip-rule="evenodd" fill-rule="evenodd"/>
  <path id="svg_19" fill="#040606" d="m302.751,148.896c-15.71,0 -28.445,12.674 -28.445,28.308c0,6.075 1.924,11.704 5.197,16.315c17.822,-9.531 33.463,-20.722 46.323,-32.869c-5.166,-7.119 -13.576,-11.754 -23.075,-11.754z" clip-rule="evenodd" fill-rule="evenodd"/>
  <path id="svg_20" fill="#040606" d="m81.6948,148.896c-15.7097,0 -28.4448,12.674 -28.4448,28.308c0,15.634 12.7351,28.309 28.4448,28.309c15.7098,0 28.4452,-12.675 28.4452,-28.309c0,-15.634 -12.7354,-28.308 -28.4452,-28.308z" clip-rule="evenodd" fill-rule="evenodd"/>
  <path id="svg_21" fill="white" d="m285.604,88.7737c3.938,3.2338 9.453,18.5223 10.438,24.1083c0,0 -63.912,3.136 -73.465,4.313l1.477,-35.0859c0,0 56.823,2.9401 61.55,6.6646z" clip-rule="evenodd" fill-rule="evenodd"/>
  <path id="svg_22" fill="#EDEEED" d="m222.776,112.462l0.077,-1.817c0.758,-0.056 1.484,-0.209 2.143,-0.476c1.096,-0.443 2.013,-1.213 2.583,-2.389c0.745,-1.537 0.928,-3.776 0.214,-6.895c-1.341,-5.856 1.646,-8.4658 6.274,-9.5155c4.119,-0.9335 9.536,-0.54 14.149,-0.2046c3.89,0.2823 7.178,0.5211 8.221,-0.0745c1.932,-1.1047 1.306,-3.1056 0.14,-5.1248c-0.324,-0.5615 -0.703,-1.1445 -1.09,-1.7192c0.764,0.0644 1.528,0.1301 2.291,0.197c0.127,0.2053 0.251,0.4125 0.372,0.6228c1.647,2.8523 2.427,5.7387 -0.81,7.5899c-1.532,0.876 -5.069,0.619 -9.251,0.3152c-4.495,-0.3266 -9.774,-0.7106 -13.622,0.1617c-3.607,0.8179 -5.936,2.8371 -4.902,7.354c0.814,3.557 0.565,6.194 -0.349,8.08c-0.785,1.618 -2.04,2.675 -3.536,3.281c-0.901,0.364 -1.886,0.561 -2.904,0.614zm62.828,-23.6883c2.46,2.0198 5.535,8.7432 7.737,14.8673c-5.037,1.869 -11.785,1.96 -15.22,4.299c-2.186,1.489 -1.837,3.655 -0.414,5.872c-13.713,0.713 -32.086,1.704 -44.06,2.499c6.973,-6.072 2.481,-13.04 7.449,-16.6593c6.91,-5.0351 23.349,0 28.053,-5.3686c1.643,-1.8746 2.159,-5.0831 2.135,-8.4647c7.338,0.8868 12.967,1.8891 14.32,2.9553z" clip-rule="evenodd" fill-rule="evenodd"/>
  <path id="svg_23" fill="white" d="m213.714,82.1091l-6.598,36.4569c0,0 -76.223,7.155 -77.109,6.273c-0.886,-0.882 5.4,-18.223 5.892,-19.437c0.492,-1.213 28.773,-19.4705 77.815,-23.2929z" clip-rule="evenodd" fill-rule="evenodd"/>
  <path id="svg_24" fill="#EDEEED" d="m134.035,110.559c0.388,-1.111 0.748,-2.12 1.047,-2.949c2.255,-1.035 4.512,-0.865 6.398,-0.723c1.527,0.114 2.735,0.205 3.126,-0.577c0.399,-0.795 -0.37,-2.09 -1.208,-3.502c-0.314,-0.529 -0.636,-1.071 -0.924,-1.624c0.51,-0.275 1.048,-0.558 1.616,-0.85c0.265,0.527 0.574,1.048 0.874,1.553c1.101,1.856 2.11,3.557 1.272,5.23c-0.939,1.873 -2.683,1.742 -4.891,1.575c-2.124,-0.159 -4.798,-0.36 -7.31,1.867zm79.679,-28.4499l-1.745,9.6426c-7.744,0.7427 -15.629,1.0276 -16.874,4.2658c-3.137,8.1505 10.114,7.8675 7.143,18.9015c-0.535,1.986 -1.595,3.385 -2.977,4.377c-19.485,1.798 -68.544,6.249 -69.255,5.543c-0.223,-0.222 0.011,-1.494 0.492,-3.288c15.724,-5.632 34.975,-4.139 34.975,-8.669c0,-6.079 -13.417,-4.942 -11.674,-11.817c1.697,-6.7004 29.199,-7.4419 30.606,-14.6649c8.713,-1.9061 18.506,-3.4491 29.309,-4.291z" clip-rule="evenodd" fill-rule="evenodd"/>
  <path id="svg_25" fill="white" d="m132.583,107.94c0,0 -24.694,15.165 -25.775,16.974c-1.08,1.809 21.201,0 21.201,0c0,0 1.081,-7.706 4.574,-16.974z" clip-rule="evenodd" fill-rule="evenodd"/>
  <path id="svg_26" fill="#F6CD56" d="m149.668,116.829c-0.261,4.675 -4.017,5.868 -6.626,5.557c-2.607,-0.311 -9.076,-2.548 -9.076,-5.557c0,-3.009 3.755,-6.331 7.851,-6.331c4.095,0 8.081,2.155 7.851,6.331z" clip-rule="evenodd" fill-rule="evenodd"/>
  <path id="svg_27" fill="white" d="m294.949,122.023c0.053,1.921 2.191,2.804 -4.434,2.596c-6.625,-0.209 -12.885,1.453 -12.364,-0.572c0.523,-2.024 5.035,-3.374 8.569,-3.374c3.534,0 8.599,-0.935 8.229,1.35z" clip-rule="evenodd" fill-rule="evenodd"/>
  <path id="svg_28" fill="white" d="m209.087,127.318c0.052,1.92 2.19,2.803 -4.434,2.595c-6.625,-0.208 -12.885,1.454 -12.364,-0.571c0.522,-2.024 5.035,-3.375 8.568,-3.375c3.535,0 8.6,-0.934 8.23,1.351z" clip-rule="evenodd" fill-rule="evenodd"/>
  <path id="svg_29" stroke-miterlimit="22.9256" stroke-width="3.77953" stroke="#F3BD06" d="m218.936,82.109l-3.886,35.086c-1.336,5.238 -4.447,36.386 -4.447,61.477m85.44,-65.79c0,0 5.152,19.521 2.214,24.826c-2.938,5.306 -10.4,6.001 -20.624,15.655c-10.225,9.653 -9.876,22.287 -12.934,23.841c-3.059,1.554 -54.096,1.468 -54.096,1.468c0,0 -78.257,2.858 -80.596,0.695c-2.339,-2.163 -2.339,-25.462 -2.339,-31.995c0,-6.533 -0.309,-18.463 2.302,-22.587"/>
  <path id="svg_30" fill="#EDAE10" d="m16.3701,156.909c0,0.677 20.709,2.925 24.9809,1.354c4.2719,-1.57 3.9457,-4.604 -0.6258,-4.604c-4.5715,0 -9.6608,1.866 -14.9393,2.221c-5.2797,0.354 -9.4158,0.354 -9.4158,1.029z" clip-rule="evenodd" fill-rule="evenodd"/>
  <path id="svg_31" fill="white" d="m27.2703,166.4c0,0 -0.5382,4.775 -0.1466,6.382c0.3916,1.608 1.1259,3.119 3.0356,3.07c1.9097,-0.049 4.885,-2.534 4.885,-6.334c0,-3.801 -7.774,-3.118 -7.774,-3.118z" clip-rule="evenodd" fill-rule="evenodd"/>
  <path id="svg_32" stroke-miterlimit="22.9256" stroke-width="2.83464" stroke="#F3BD06" d="m23.793,164.94c4.9471,0.488 10.3728,-0.605 12.1804,1.798c1.6279,2.163 1.3124,4.964 -1.8012,9.115"/>
  <path id="svg_33" fill="#252627" d="m302.751,159.164c-10.011,0 -18.127,8.077 -18.127,18.04c0,4.242 1.472,8.142 3.934,11.222c10.809,-6.395 20.701,-13.406 29.52,-20.858c-3.213,-5.051 -8.876,-8.404 -15.327,-8.404z" clip-rule="evenodd" fill-rule="evenodd"/>
  <path id="svg_34" fill="#56595B" d="m316.248,169.09c-1.83,-3.008 -4.646,-5.354 -8.002,-6.597c1.473,2.609 2.316,5.62 2.316,8.825c0,0.819 -0.056,1.624 -0.163,2.414c1.997,-1.526 3.946,-3.074 5.849,-4.642z" clip-rule="evenodd" fill-rule="evenodd"/>
  <path id="svg_35" fill="#252627" d="m81.6949,159.164c-10.0117,0 -18.1278,8.077 -18.1278,18.04c0,9.964 8.1161,18.041 18.1278,18.041c10.0118,0 18.1278,-8.077 18.1278,-18.041c0,-9.963 -8.116,-18.04 -18.1278,-18.04z" clip-rule="evenodd" fill-rule="evenodd"/>
  <path id="svg_36" fill="#56595B" d="m72.2751,189.788c2.6282,1.951 5.8878,3.107 9.4197,3.107c8.7075,0 15.7668,-7.025 15.7668,-15.691c0,-4.053 -1.5441,-7.745 -4.0789,-10.53c0.5528,1.728 0.8523,3.569 0.8523,5.479c0,9.963 -8.116,18.04 -18.1278,18.04c-1.315,0 -2.5964,-0.141 -3.8321,-0.405z" clip-rule="evenodd" fill-rule="evenodd"/>
  <path id="svg_37" fill="#E3ED51" d="m44.6581,134.011c-1.7086,0 -4.5138,1.812 -6.2654,4.047c-1.7517,2.235 -1.7872,4.047 -0.0787,4.047c1.7085,0 4.5137,-1.812 6.2654,-4.047c1.7523,-2.235 1.7872,-4.047 0.0787,-4.047z" clip-rule="evenodd" fill-rule="evenodd"/>
  <path id="svg_38" fill="#F3BD06" d="m138.035,119.168c1.669,0.934 2.934,1.27 1.415,5.282c-1.52,4.01 -2.461,4.633 -6.867,4.633c-4.407,0 -4.043,-3.115 -1.33,-5.918c2.713,-2.804 4.851,-4.88 6.782,-3.997z" clip-rule="evenodd" fill-rule="evenodd"/>
  <path id="svg_39" fill="#C3C5C3" d="m213.407,45.2022c2.566,0 4.646,0.4131 4.646,0.9222c0,0.5097 -2.08,0.9227 -4.646,0.9227c-2.565,0 -4.646,-0.413 -4.646,-0.9227c0,-0.5091 2.081,-0.9222 4.646,-0.9222z" clip-rule="evenodd" fill-rule="evenodd"/>
  <path id="svg_40" fill="#EDAE10" d="m213.407,0.00002c7.511,0 13.6,6.05954 13.6,13.53388c0,7.4756 -13.6,32.5905 -13.6,32.5905c0,0 -13.6,-25.1149 -13.6,-32.5905c0,-7.47434 6.09,-13.53388 13.6,-13.53388z" clip-rule="evenodd" fill-rule="evenodd"/>
  <path id="svg_41" fill="#FFF1B1" d="m213.407,8.91123c2.566,0 4.646,2.06977 4.646,4.62267c0,2.5535 -2.08,4.6239 -4.646,4.6239c-2.565,0 -4.646,-2.0704 -4.646,-4.6239c0,-2.5529 2.081,-4.62267 4.646,-4.62267z" clip-rule="evenodd" fill-rule="evenodd"/>
  <path id="svg_42" fill="#040606" d="m70.4107,38.0671c0,0 -0.1803,5.9136 -2.2512,7.7055c-2.0702,1.7918 -2.8807,-7.7952 -2.8807,-7.7952l5.1319,0.0897z" clip-rule="evenodd" fill-rule="evenodd"/>
  <path id="svg_43" fill="#E1E2DF" d="m59.0959,217.085c-0.4848,-0.001 -0.9716,-0.001 -1.459,-0.001c-31.8321,0 -57.6369,1.772 -57.6369,3.958c0,2.186 25.8048,3.958 57.6369,3.958c11.3064,0 21.8507,-0.224 30.7505,-0.61c16.1556,-0.701 26.8866,-1.939 26.8866,-3.348c0,-2.153 -25.0207,-3.904 -56.1781,-3.957z" clip-rule="evenodd" fill-rule="evenodd"/>
  <path id="svg_44" fill="#F4BE05" d="m67.8099,72.7386c0.0241,-2.4095 0.1034,-5.1147 -1.2364,-7.2785c-1.3397,-2.1632 -7.5968,-0.804 -12.3168,-0.9733c-4.7193,-0.1693 -15.8849,-3.1277 -17.5509,0.804c-1.6653,3.9324 0,6.8131 0,6.8131c0,0 -4.138,3.4283 -6.6627,7.5754c-2.5253,4.147 -4.586,12.0559 -5.9772,14.7661c-1.3912,2.7108 -2.7309,9.4396 -1.9065,14.0096c0.8244,4.57 0.6182,9.775 2.3705,11.468c1.7516,1.693 7.0586,3.494 14.7869,3.926c7.7289,0.432 24.7391,4.207 24.7391,-6.306c0,-10.513 7.5537,-17.301 3.754,-44.8044z" clip-rule="evenodd" fill-rule="evenodd"/>
  <path id="svg_45" fill="#EDAE10" d="m67.8098,72.7386c0.019,-1.9371 0.0742,-4.0656 -0.6011,-5.9496c-2.3653,0.0334 -5.2048,0.3518 -7.6368,0.2646c-4.7193,-0.1693 -15.8849,-3.1277 -17.5503,0.804c-1.6653,3.9317 0,6.8131 0,6.8131c0,0 -4.1392,3.4277 -6.6633,7.5747c-2.5246,4.1471 -4.586,12.056 -5.9772,14.7668c-1.3912,2.7108 -2.7309,9.4388 -1.9065,14.0098c0.8066,4.47 0.6277,9.548 2.2587,11.351c2.505,0.71 5.7456,1.262 9.5834,1.476c7.7289,0.432 24.7391,4.207 24.7391,-6.306c0,-10.513 7.5537,-17.301 3.754,-44.8044z" clip-rule="evenodd" fill-rule="evenodd"/>
  <path id="svg_46" fill="#642815" d="m95.853,215.353c0,0 0.7127,5.874 -4.9085,5.691c-5.6205,-0.183 -10.1545,-0.921 -10.1545,-0.921l0,0.921l-8.9189,0l0,-4.184l23.9819,-1.507z" clip-rule="evenodd" fill-rule="evenodd"/>
  <path id="svg_47" fill="#F4BE05" d="m73.5231,132.837l8.0564,72.784l-9.1899,0l-13.7131,-51.935l-11.3883,54.814l-9.2591,0l-0.066,-75.663l35.56,0z" clip-rule="evenodd" fill-rule="evenodd"/>
  <path id="svg_48" fill="#FAB682" d="m68.9688,101.708c1.9668,5.6 5.901,10.931 12.3263,10.392c6.426,-0.538 0,-17.232 0,-17.232l-12.3263,6.84z" clip-rule="evenodd" fill-rule="evenodd"/>
  <path id="svg_49" fill="#F8A074" d="m83.1806,100.916c-0.8283,-3.3005 -1.8856,-6.048 -1.8856,-6.048l-5.8408,3.2407c-0.0888,3.8153 0.9786,7.7173 5.6555,7.9093l2.0709,-5.102z" clip-rule="evenodd" fill-rule="evenodd"/>
  <path id="svg_50" fill="#FAB682" d="m51.0167,58.2056l-1.4793,17.5755l12.2622,0c0,0 -2.8001,-9.6686 -2.8001,-14.6298l-7.9828,-2.9457z" clip-rule="evenodd" fill-rule="evenodd"/>
  <path id="svg_51" fill="#F57D5C" d="m51.0167,58.2056l-0.3084,3.6658c2.7721,2.8327 6.4563,5.4627 9.2717,6.5478c-0.5357,-2.5643 -0.9805,-5.2897 -0.9805,-7.2678l-7.9828,-2.9458z" clip-rule="evenodd" fill-rule="evenodd"/>
  <path id="svg_52" fill="#FAB682" d="m68.204,34.7872c0,0 4.4673,29.1451 -10.0765,29.1451c-14.5445,0 -12.8335,-19.9004 -12.8335,-24.9109l0,-4.2342l22.91,0z" clip-rule="evenodd" fill-rule="evenodd"/>
  <path id="svg_53" fill="#040606" d="m43.5492,46.5677c4.4998,0.3569 7.7937,-2.6072 7.7937,-5.0565c0,-2.4494 -1.3798,-4.8551 -1.3798,-4.8551c0,0 4.6946,5.1285 12.4343,4.9946c7.7397,-0.1339 11.1643,-4.1211 10.7137,-9.1392c-0.2913,-3.2552 -3.2888,-5.9212 -6.0483,-5.9212c-2.7602,0 -7.5601,2.0489 -10.92,2.0489c-3.3599,0 -7.0936,-1.4255 -9.4564,0.5791c-2.3635,2.0041 -2.1833,4.0082 -2.1833,4.0082c0,0 -5.7487,1.4255 -5.7487,6.3696c0,4.9436 3.773,7.2963 4.6559,7.2489l0.1389,-0.2773z" clip-rule="evenodd" fill-rule="evenodd"/>
  <path id="svg_54" fill="#040606" d="m56.0425,48.3558c0.4881,0 0.8841,0.4118 0.8841,0.9196c0,0.5078 -0.396,0.9196 -0.8841,0.9196c-0.488,0 -0.8841,-0.4118 -0.8841,-0.9196c0,-0.5078 0.3961,-0.9196 0.8841,-0.9196z" clip-rule="evenodd" fill-rule="evenodd"/>
  <path id="svg_55" fill="#040606" d="m64.9354,48.4739c0.488,0 0.8834,0.4118 0.8834,0.9197c0,0.5084 -0.3954,0.9202 -0.8834,0.9202c-0.4881,0 -0.8841,-0.4118 -0.8841,-0.9202c0,-0.5079 0.396,-0.9197 0.8841,-0.9197z" clip-rule="evenodd" fill-rule="evenodd"/>
  <path id="svg_56" fill="#F57D5C" d="m61.5869,48.5996c1.4369,2.5744 2.401,4.6139 -2.0423,5.4002c-0.2113,0.0246 -0.3979,-0.0834 -0.4157,-0.24c-0.0184,-0.1573 0.1384,-0.3044 0.3497,-0.3284c3.7178,-0.655 2.6624,-2.3136 1.4083,-4.5595c-0.0876,-0.1396 -0.0019,-0.3146 0.1917,-0.3891c0.1929,-0.0758 0.4208,-0.0234 0.5083,0.1168z" clip-rule="evenodd" fill-rule="evenodd"/>
  <path id="svg_57" fill="#FFF1B1" d="m35.1763,79.2744c1.2325,-1.8227 14.8256,-9.016 14.8256,-9.016c0,0 2.1858,4.5077 6.3771,4.5077c4.1913,0 3.8987,-4.9738 3.8987,-4.9738c0,0 14.4068,3.8123 15.7631,5.2801c1.3556,1.4679 7.3341,24.2989 7.3341,24.2989c0,0 -3.9444,3.0367 -11.587,2.5817c0,0 1.8488,18.78 2.4657,22.83c0.6156,4.049 1.935,6.97 1.5657,7.427c-2.5038,3.094 -10.5494,4.252 -14.0984,4.729c-8.5431,1.147 -18.1951,-0.262 -25.9043,-4.219c-0.9862,-0.506 1.5169,-22.06 2.2562,-25.908c0,0 -9.3066,-2.227 -9.3682,-2.834c-0.0615,-0.608 5.3007,-23.0841 6.4717,-24.7036z" clip-rule="evenodd" fill-rule="evenodd"/>
  <path id="svg_58" fill="#FEC400" d="m77.2255,101.675c-0.945,0.164 -1.9973,0.278 -3.1549,0.313l-0.5242,-19.6693c3.912,6.575 3.7959,16.5833 3.6791,19.3563z" clip-rule="evenodd" fill-rule="evenodd"/>
  <path id="svg_59" fill="#FEC400" d="m48.5625,71.0295l0.337,-0.1812c0.5483,1.2051 1.6723,2.5504 3.0635,3.5559c1.4013,1.0124 3.0686,1.6731 4.6743,1.4792c3.1466,-0.379 4.211,-2.0161 4.4515,-3.6576c0.1155,-0.7882 0.045,-1.5784 -0.0774,-2.2365l0.4195,0.1137c0.1085,0.648 0.1618,1.4047 0.0507,2.1613c-0.2595,1.7691 -1.4038,3.5332 -4.7866,3.9406c-1.7358,0.209 -3.5122,-0.487 -4.9935,-1.5569c-1.4096,-1.0182 -2.5551,-2.3805 -3.139,-3.6185z" clip-rule="evenodd" fill-rule="evenodd"/>
  <path id="svg_60" fill="#FAB682" d="m78.9347,103.503c-0.9184,4.451 0.6067,8.373 2.9118,8.504c2.3045,0.131 4.4972,-0.93 7.9066,-7.177c3.4094,-6.2463 6.6227,-22.3476 7.1469,-23.2634c0.5249,-0.9152 5.574,-0.0537 7.016,-1.8311c1.442,-1.7766 2.426,-9.9432 0,-9.9432c-2.426,0 -10.2064,3.2123 -11.8895,9.6205c-1.6832,6.4082 -8.6517,11.4919 -13.0918,24.0902z" clip-rule="evenodd" fill-rule="evenodd"/>
  <path id="svg_61" fill="#FFF1B1" d="m80.27,200.316c3.3212,1.225 1.4908,7.793 2.3044,9.017c0.813,1.224 2.8459,2.059 5.896,1.446c3.0496,-0.611 8.1999,-0.054 8.1999,3.619c0,3.673 -1.3087,5.009 -8.1999,5.009c-6.8911,0 -16.4231,0.012 -16.8445,-1.28c-0.4214,-1.292 -0.436,-12.526 0.4253,-13.751c0.269,-0.32 2.564,0.336 3.4506,-0.443c1.3277,-1.167 1.6749,-3.793 4.7682,-3.617z" clip-rule="evenodd" fill-rule="evenodd"/>
  <path id="svg_62" fill="#040606" d="m89.9296,210.596c-1.5258,0.195 -2.5025,1.409 -3.0953,2.464c-0.078,0.167 -0.3059,0.252 -0.5109,0.189c-0.2043,-0.064 -0.3078,-0.252 -0.2297,-0.42c0.7685,-1.366 1.8894,-2.654 3.8359,-2.883c0.2189,0 0.396,0.146 0.396,0.325c0,0.18 -0.1771,0.325 -0.396,0.325z" clip-rule="evenodd" fill-rule="evenodd"/>
  <path id="svg_63" fill="#040606" d="m86.4638,210.938c-1.1913,0.166 -2.3648,0.982 -2.9639,1.815c-0.0901,0.163 -0.3243,0.237 -0.5242,0.163c-0.1993,-0.074 -0.2882,-0.267 -0.1981,-0.43c0.7819,-1.093 2.1287,-2.002 3.6862,-2.198c0.2189,0 0.396,0.146 0.396,0.325c0,0.18 -0.1771,0.325 -0.396,0.325z" clip-rule="evenodd" fill-rule="evenodd"/>
  <path id="svg_64" fill="#040606" d="m83.4632,210.25c-0.5503,-0.036 -1.5385,0.779 -1.8406,1.056c-0.1136,0.154 -0.3566,0.204 -0.5439,0.11c-0.1872,-0.093 -0.2468,-0.293 -0.1339,-0.447c0.6296,-0.596 1.6489,-1.465 2.7297,-1.347c0.2107,0.049 0.3338,0.229 0.2761,0.401c-0.059,0.174 -0.2767,0.275 -0.4874,0.227z" clip-rule="evenodd" fill-rule="evenodd"/>
  <path id="svg_65" fill="#040606" d="m82.4234,206.754l0.0711,0.033c1.2224,-0.211 2.2143,-0.613 2.2968,-1.267c-0.561,0.058 -1.4413,0.56 -2.3679,1.234zm-1.5853,0.204c0.038,-0.029 0.0755,-0.058 0.1136,-0.087c-1.6076,-0.659 -3.0813,-1.02 -3.3098,-0.288c0.2685,0.286 1.6895,0.442 3.1962,0.375zm-2.976,3.266c0.5535,-0.946 1.3043,-1.809 2.1217,-2.551c-2.5501,-0.204 -4.5219,-1.193 -2.2568,-1.999c0.8561,-0.306 2.3647,0.101 3.8847,0.727c2.5126,-1.689 4.885,-2.116 3.7794,-0.319c-0.3617,0.588 -1.0053,0.991 -1.7834,1.25c1.0555,0.546 1.9522,1.091 2.4155,1.425c0.1384,0.139 0.1136,0.344 -0.0558,0.457c-0.1695,0.114 -0.4189,0.093 -0.5573,-0.045c-0.2684,-0.192 -1.4806,-0.901 -2.8724,-1.58c-0.4303,0.069 -0.8778,0.108 -1.3252,0.118c-1.1646,0.984 -2.2118,2.057 -2.578,2.661c-0.0489,0.175 -0.2608,0.285 -0.4741,0.245c-0.2132,-0.04 -0.3471,-0.214 -0.2983,-0.389z" clip-rule="evenodd" fill-rule="evenodd"/>
  <path id="svg_66" fill="#F4BE05" d="m67.834,70.3291c2.6103,0.6089 4.0212,2.4923 5.2213,6.7808c1.1995,4.288 3.1397,16.69 2.54,23.2671c-0.5998,6.578 -2.6472,12.996 -2.6472,12.996c0,0 -1.2687,-12.648 -1.586,-15.4298c-0.318,-2.7815 -3.5636,-19.5296 -5.0456,-23.0641c-1.4813,-3.5356 -2.4694,-4.0119 -2.2226,-4.55c0.2469,-0.5369 3.7401,0 3.7401,0z" clip-rule="evenodd" fill-rule="evenodd"/>
  <path id="svg_67" fill="#642815" d="m35.5767,217.171l-1.6907,0.056c0.1003,2.864 -0.6372,6.895 8.3248,7.014c8.9614,0.119 8.3236,-2.911 8.3598,-6.097l-14.9939,-0.973z" clip-rule="evenodd" fill-rule="evenodd"/>
  <path id="svg_68" fill="#F4BE05" d="m42.645,72.3673c2.4567,-1.2771 3.6264,-1.1242 3.9177,-0.7661c0.2913,0.3581 2.4669,3.1157 2.9747,7.4061c0.5083,4.2898 1.3474,13.4834 0.9431,19.2296c-0.4037,5.7461 -6.7033,18.5401 -13.7747,19.3061l0,-11.037c0.5718,0.144 1.0504,0.254 1.3671,0.306c1.7485,0.288 6.0527,0.403 7.8171,-0.379c0,0 0.924,-6.751 0.924,-10.1704c0,-2.7759 -1.8373,-15.5626 -3.516,-18.022c-1.6793,-2.4595 -2.4878,-2.9623 -2.5494,-3.3709c-0.0622,-0.4086 0.2799,-1.5575 1.8964,-2.5024z" clip-rule="evenodd" fill-rule="evenodd"/>
  <path id="svg_69" fill="#FAB682" d="m41.6084,48.5617c0,1.9466 1.5949,3.2982 3.6226,3.2982c2.0278,0 2.7094,-2.7215 2.7094,-3.3418c0,-0.6208 -0.8853,-3.0904 -3.1657,-3.0904c-2.2797,0 -3.2894,1.8468 -3.1663,3.134z" clip-rule="evenodd" fill-rule="evenodd"/>
  <path id="svg_70" fill="#F57D5C" d="m44.3566,46.7484c1.1818,-0.1383 2.4936,0.5659 2.359,1.9409c-0.0228,0.2318 -1.5466,0.2426 -1.2198,0.6562c0.3929,0.4977 1.0815,0.2874 1.282,0.1219c-0.0945,0.5129 -1.4965,0.8994 -1.8132,-0.0031c-0.1536,-0.439 0.1777,-0.9986 1.0993,-1.0188c-0.193,-1.0409 -0.8968,-1.3611 -1.5556,-1.2632c-1.3486,0.2002 -1.4915,0.8281 -1.5835,1.219c-0.2202,-0.511 0.1206,-1.4982 1.4318,-1.6529z" clip-rule="evenodd" fill-rule="evenodd"/>
  <path id="svg_71" fill="#FAB682" d="m31.1727,104.944c-0.7673,2.478 -1.6032,6.39 -0.6404,9.711c1.5454,5.332 11.9538,32.245 11.9538,32.245l4.3278,-3.047c0,0 -5.5597,-28.095 -5.8687,-30.527c0,0 1.5384,-2.548 2.5449,-6.385c-1.9319,0.179 -4.2243,-0.201 -5.4174,-0.396c-1.1925,-0.196 -4.8152,-0.98 -6.9,-1.601z" clip-rule="evenodd" fill-rule="evenodd"/>
  <path id="svg_72" fill="#EDAE10" d="m94.8591,59.1125l8.8119,0.6651c0.651,0.0493 1.134,0.5268 1.075,1.0611l-1.792,16.0041c-0.06,0.5349 -0.641,0.9316 -1.291,0.8823l-8.8133,-0.665c-0.6505,-0.0493 -1.1341,-0.5268 -1.0745,-1.0611l1.7917,-16.0041c0.0596,-0.535 0.641,-0.9316 1.2922,-0.8824z" clip-rule="evenodd" fill-rule="evenodd"/>
  <path id="svg_73" fill="#040606" d="m102.604,60.6075c0.504,0.0379 0.877,0.4074 0.832,0.8217l-0.267,2.3748c-0.046,0.4137 -0.495,0.7213 -0.999,0.6834c-0.504,-0.0385 -0.879,-0.408 -0.832,-0.821l0.265,-2.3761c0.047,-0.4131 0.497,-0.7207 1.001,-0.6828z" clip-rule="evenodd" fill-rule="evenodd"/>
  <path id="svg_74" fill="#252627" d="m102.555,61.0446c0.324,0.0246 0.563,0.2602 0.534,0.5268c-0.03,0.2665 -0.318,0.4629 -0.642,0.4383c-0.325,-0.0246 -0.564,-0.2609 -0.534,-0.5268c0.03,-0.2665 0.317,-0.4629 0.642,-0.4383z" clip-rule="evenodd" fill-rule="evenodd"/>
  <path id="svg_75" fill="white" d="m102.286,63.4497c0.192,0.0146 0.332,0.1542 0.315,0.3121c-0.018,0.1572 -0.188,0.2728 -0.379,0.2583c-0.192,-0.0146 -0.333,-0.1535 -0.315,-0.3114c0.017,-0.1573 0.187,-0.2735 0.379,-0.259z" clip-rule="evenodd" fill-rule="evenodd"/>
  <path id="svg_76" fill="#252627" d="m102.42,62.2472c0.325,0.0246 0.564,0.2602 0.533,0.5274c-0.029,0.2659 -0.316,0.4623 -0.641,0.4377c-0.325,-0.0247 -0.563,-0.2603 -0.533,-0.5268c0.029,-0.2665 0.316,-0.4629 0.641,-0.4383z" clip-rule="evenodd" fill-rule="evenodd"/>
  <path id="svg_77" fill="#FFF1B1" d="m43.3571,205.194c6.3891,0.254 4.3798,5.563 4.1735,7.86c-0.2056,2.296 2.9372,3.058 3.0401,5.09c0.1028,2.03 -1.7517,4.46 -8.1668,4.46c-6.4146,0 -8.5267,-2.317 -8.5267,-5.771c0,-3.454 3.4678,-3.775 3.4678,-5.895c0,-2.12 -1.8291,-5.606 6.0121,-5.744z" clip-rule="evenodd" fill-rule="evenodd"/>
  <path id="svg_78" fill="#040606" d="m39.1074,215.98c1.4191,-0.908 3.7306,-0.733 5.1484,0.083c0.1542,0.127 0.1542,0.333 0,0.46c-0.1549,0.127 -0.4055,0.127 -0.5604,0c-1.0148,-0.562 -3.0299,-0.717 -4.0479,-0.067c-0.1605,0.123 -0.4112,0.115 -0.5597,-0.016c-0.1492,-0.131 -0.1403,-0.337 0.0196,-0.46z" clip-rule="evenodd" fill-rule="evenodd"/>
  <path id="svg_79" fill="#040606" d="m39.6055,213.852c1.1907,-0.588 3.1638,-0.7 4.263,0.115c0.146,0.134 0.1321,0.34 -0.0311,0.46c-0.1624,0.119 -0.4131,0.108 -0.5591,-0.026c-0.6841,-0.5 -2.4168,-0.409 -3.1536,-0.058c-0.165,0.118 -0.4151,0.104 -0.5585,-0.032c-0.1434,-0.136 -0.1263,-0.341 0.0393,-0.459z" clip-rule="evenodd" fill-rule="evenodd"/>
  <path id="svg_80" fill="#040606" d="m39.6614,212.138c0.8441,-0.957 3.3714,-1.047 4.4116,-0.031c0.1212,0.149 0.0723,0.352 -0.1092,0.452c-0.1815,0.099 -0.4278,0.059 -0.5496,-0.091c-0.6544,-0.637 -2.6332,-0.473 -3.0502,-0.031c-0.1009,0.16 -0.3395,0.222 -0.5337,0.14c-0.1942,-0.083 -0.2698,-0.28 -0.1689,-0.439z" clip-rule="evenodd" fill-rule="evenodd"/>
  <path id="svg_81" fill="#040606" d="m43.2992,209.381c1.4019,0.061 2.6941,-0.135 3.073,-0.73c-0.2602,-0.532 -1.5835,-0.069 -3.073,0.73zm-1.918,-0.236c-0.8714,-0.812 -1.5917,-1.446 -2.3609,-1.431c-0.021,0.012 -0.0444,0.028 -0.0495,0.045c-0.1663,0.574 0.9723,1.094 2.4104,1.386zm-3.3979,3.213c0.9538,-1.134 1.982,-2.01 2.9949,-2.671c-2.0874,-0.57 -3.5763,-1.665 -2.4986,-2.451c0.9545,-0.696 2.4478,0.489 3.7971,1.71c3.3713,-1.656 6.1042,-0.996 4.581,0.238c-0.8263,0.671 -2.0677,0.912 -3.3567,0.881c0.4424,0.393 0.8346,0.71 1.1417,0.855c1.072,0.508 1.3811,0.555 2.5374,0.901c0.2088,0.052 0.3262,0.235 0.2621,0.406c-0.0647,0.172 -0.2862,0.269 -0.4956,0.216l-1.369,-0.41c-1.3677,-0.486 -2.4212,-1.286 -3.3034,-2.068c-1.541,0.929 -3.0432,2.047 -3.5712,2.665c-0.0914,0.164 -0.3263,0.235 -0.5255,0.161c-0.198,-0.076 -0.2856,-0.269 -0.1942,-0.433z" clip-rule="evenodd" fill-rule="evenodd"/>
  <path id="svg_82" fill="#FEC400" d="m41.7634,107.028c0.8778,-1.59 4.0676,-7.026 4.5213,-16.057c0.3288,2.3666 0.5293,4.3751 0.5293,5.2916c0,3.4194 -0.924,10.1704 -0.924,10.1704c-0.9234,0.409 -2.5425,0.573 -4.1266,0.595z" clip-rule="evenodd" fill-rule="evenodd"/>
  <path id="svg_83" fill="#040606" d="m48.6292,142.474c-2.307,2.704 -4.2326,4.702 -8.3591,5.132c-0.2184,0 -0.3961,-0.145 -0.3961,-0.325c0,-0.18 0.1777,-0.325 0.3961,-0.325c3.733,-0.393 5.6015,-2.379 7.6654,-4.796c0.106,-0.158 0.3471,-0.215 0.5388,-0.128c0.191,0.087 0.2608,0.285 0.1549,0.442z" clip-rule="evenodd" fill-rule="evenodd"/>
  <path id="svg_84" fill="#FAB682" d="m104.481,69.995c0,0 -4.055,-3.4441 -4.8653,-2.6382c-0.8104,0.8065 3.5283,3.7529 3.5283,3.7529c0,0 -4.7271,-2.5535 -4.8623,-1.4785c-0.1352,1.0756 4.5913,3.8976 4.5913,3.8976c0,0 -4.3209,-1.3441 -4.5913,-0.1346c-0.2704,1.2096 4.0513,1.8816 4.0513,1.8816c0,0 -4.4562,0 -4.7266,0.672c-0.2703,0.672 5.8076,2.1506 5.8076,2.1506l1.067,-8.1034z" clip-rule="evenodd" fill-rule="evenodd"/>
  <path id="svg_85" fill="#040606" d="m54.0796,46.3208c0.0717,-0.0815 0.1466,-0.1592 0.2265,-0.2325c0.0426,-0.0385 0.0863,-0.0758 0.1301,-0.1124c0.0559,-0.0467 0.0077,0.0063 -0.0196,0.0139c0.0196,-0.0057 0.045,-0.0335 0.0615,-0.0455c0.0882,-0.0631 0.1803,-0.1206 0.2748,-0.1737c0.0502,-0.0284 0.1009,-0.0549 0.1524,-0.0802c0.0234,-0.0113 0.0463,-0.0221 0.0691,-0.0328c0.0159,-0.007 0.1174,-0.0543 0.0406,-0.0183c-0.0698,0.0322 0.0096,-0.0026 0.0242,-0.0082c0.0241,-0.0095 0.0482,-0.0177 0.0723,-0.0266c0.054,-0.0189 0.1092,-0.0366 0.1638,-0.0524c0.1047,-0.0297 0.21,-0.0543 0.3173,-0.0732c0.0254,-0.0045 0.0508,-0.0076 0.0755,-0.0121c0.0749,-0.0132 -0.106,0.0095 -0.0304,0.0045c0.0577,-0.0038 0.1142,-0.0114 0.1719,-0.0139c0.1149,-0.0057 0.2298,-0.0044 0.3447,0.0031c0.2837,0.0177 0.5553,-0.2615 0.5426,-0.5406c-0.014,-0.3076 -0.2386,-0.5205 -0.5426,-0.54c-1.0555,-0.0664 -2.1465,0.3846 -2.842,1.1773c-0.1873,0.2122 -0.226,0.5577 0,0.7636c0.2043,0.1869 0.568,0.2273 0.7673,0z"/>
  <path id="svg_86" fill="#040606" d="m63.7835,47.2328c0.1067,-0.0328 0.2145,-0.0606 0.3237,-0.0808c0.0343,-0.007 0.2037,-0.0562 0.0622,-0.012c0.0495,-0.0158 0.1155,-0.0114 0.1663,-0.0146c0.1117,-0.0069 0.2234,-0.0075 0.3345,-0.0012c0.0558,0.0025 0.111,0.0082 0.1669,0.0126c0.1142,0.0089 -0.1035,-0.0183 0.0419,0.0063c0.1028,0.0177 0.2056,0.0398 0.3059,0.0676c0.0996,0.0272 0.2291,0.0518 0.3167,0.1061c-0.1187,-0.0732 0.0342,0.0158 0.0615,0.0291c0.0508,0.024 0.0997,0.0499 0.1485,0.0764c0.0978,0.0543 0.1911,0.1143 0.2818,0.1787c0.2323,0.1643 0.6144,0.0481 0.7432,-0.1939c0.1473,-0.2779 0.0533,-0.564 -0.1948,-0.7389c-0.8663,-0.6127 -2.0335,-0.7864 -3.047,-0.4775c-0.2717,0.0827 -0.4716,0.3815 -0.3796,0.6644c0.0889,0.2723 0.377,0.4662 0.6683,0.3777z"/>
  <path id="svg_87" fill="#040606" d="m56.431,55.7183c1.5974,1.3245 3.9431,1.5538 5.7468,0.4971c0.6017,-0.3524 0.0559,-1.2865 -0.5477,-0.9329c-1.3581,0.7952 -3.2107,0.6841 -4.4318,-0.3284c-0.2247,-0.1863 -0.5471,-0.2191 -0.7673,0c-0.1929,0.192 -0.2266,0.5767 0,0.7642z"/>
 </g>
</svg>