<svg width="361" height="201" xmlns="http://www.w3.org/2000/svg" fill="none">

 <g>
  <title>Layer 1</title>
  <path id="svg_1" fill="#E6EBF7" d="m356.929,197.573l-211.422,0c5.115,-0.806 9.111,-4.992 9.639,-10.207c0.04,-0.387 0.059,-0.78 0.059,-1.178l0,-0.153l86.691,0c1.82,0 3.231,-1.485 3.232,-3.25c0,-0.146 -0.009,-0.293 -0.029,-0.442c-0.076,-0.573 -0.128,-1.153 -0.158,-1.739c11.046,-0.195 30.098,-0.59 40.665,-0.813c-0.022,0.382 -0.051,0.761 -0.09,1.137c-0.001,0.01 -0.002,0.019 -0.003,0.028c0,0.001 0,0.001 0,0.001c-0.003,0.027 -0.005,0.054 -0.009,0.08c-0.016,0.152 -0.024,0.302 -0.024,0.45c-0.004,2.228 1.787,4.093 4.072,4.093l15.744,0c2.863,0 5.184,-2.319 5.184,-5.179l0,-0.853l0,-3.217c0,-0.86 -0.512,-1.603 -1.251,-1.938l0,-8.23c0,-1.82 -0.117,-3.641 -0.39,-5.442c-1.604,-10.562 -6.786,-12.781 -22.119,-15.844c-16.919,-3.381 -38.397,-14.404 -38.397,-14.404c0,0 -36.634,-17.931 -45.608,-19.989c-5.351,-1.227 -15.36,-1.514 -26.497,-1.514c-6.85,0 -14.126,0.11 -21.013,0.173l0,-62.6752l4.666,0l0,27.0298l6.235,0l0,9.2593l4.301,0l0,18.9361l5.16,0l0,-60.7317l2.796,0l0,-9.5095l24.51,0l0,9.5095l2.796,0l0,45.0674l8.171,-0.215l0,-28.8345l23.221,0l1.043,54.2018l3.472,-0.215l0,-18.2952l7.526,0l0,-14.3918l4.515,0l0,-9.6674l17.631,0l0,9.6674l4.515,0l0,14.3918l7.526,0l0,33.7722l6.45,-0.215l0,-33.4953l21.563,0l0,31.5133l0,5.119l13.169,0l0,-15.897l15.915,0l0,35.703l16.543,0l0,48.402z"/>
  <path id="svg_2" fill="#EDAE10" d="m76.1028,196.51c0,0 -8.0622,-46.476 -11.3223,-51.276c-2.4747,-3.643 -5.2805,0.856 -7.3521,5.355c-1.6999,3.692 -2.9056,7.383 -3.0287,6.577c-2.5802,-16.894 -2.0404,-38.203 -14.1084,-41.432c-6.86,-1.835 0.4536,15.914 -0.3984,20.487c-0.8519,4.573 -12.2638,-11.754 -19.2924,-20.392c-7.0284,-8.638 -11.33214,-3.872 -7.2579,6.608c3.9396,10.132 18.2115,22.006 15.0167,23.023c-1.4032,0.447 -5.6465,-2.027 -10.1927,-4.5c-5.8041,-3.157 -12.10216,-6.315 -13.61604,-3.398c-3.31016,6.38 24.28594,17.639 21.51714,18.91c-1.0961,0.503 -3.8182,-0.13 -6.7073,-0.762c-4.4094,-0.964 -9.2076,-1.928 -9.2076,1.141c0,5.081 18.1656,6.352 17.693,8.549c-0.3627,1.686 -3.1195,0.525 -6.0131,-0.636c-3.2085,-1.287 -6.5854,-2.574 -7.054,0.021c-0.9117,5.049 15.4905,5.431 14.9175,9.381c-0.3292,2.268 -4.4603,-0.107 -5.2076,3.013c-1.7039,7.114 24.1423,17.082 24.1423,17.082l27.4719,2.249z"/>
  <path id="svg_3" fill="#FFF1B1" d="m88.9649,197.712c-3.2802,-4.263 -22.6557,-28.108 -34.384,-31.914c-12.946,-4.201 -0.7445,12.485 -0.7445,12.485c0,0 -22.9658,-25.173 -31.3935,-22.904c-7.7253,2.08 0,17.684 0,17.684c0,0 -8.701,-8.64 -19.25275,-8.64c-10.26935,0 7.45745,31.649 8.39855,33.289l77.3762,0z"/>
  <path id="svg_4" fill="#96D9C9" d="m104.409,196.77c2.543,-2.178 4.08,-4.486 3.686,-6.783c-0.702,-4.098 -6.524,-1.465 -6.745,-4.423c-0.385,-5.147 21.838,-3.942 21.104,-10.542c-0.379,-3.405 -5.107,-2.074 -9.589,-0.742c-4.011,1.191 -7.824,2.383 -8.147,0.181c-0.422,-2.88 24.275,-2.636 24.777,-9.183c0.305,-3.99 -6.397,-3.196 -12.5,-2.402c-3.91,0.509 -7.576,1.016 -8.989,0.266c-3.62,-1.924 34.819,-13.576 30.971,-22.137c-1.772,-3.943 -10.715,-0.452 -18.924,3.041c-6.329,2.693 -12.223,5.384 -14.059,4.671c-4.222,-1.641 16.256,-15.463 22.584,-28.112c6.547,-13.081 1.197,-19.667 -9.163,-9.264c-10.36,10.402 -27.4095,30.259 -28.1101,24.278c-0.7007,-5.98 10.9451,-28.094 1.4846,-26.438c-16.6425,2.912 -18.0166,30.423 -23.1754,51.924c-0.2485,1.035 -1.5347,-3.941 -3.4979,-8.917c-2.355,-5.969 -5.6843,-11.938 -9.365,-7.531c-3.4716,4.156 2.9668,34.761 6.9801,52.113l40.6777,0z"/>
  <path id="svg_5" fill="white" d="m193.052,65.4709c0,4.8665 -3.947,8.81 -8.819,8.81c-4.87,0 -8.817,-3.9435 -8.817,-8.81c0,-4.8652 3.947,-8.8099 8.817,-8.8099c4.872,0 8.819,3.9447 8.819,8.8099z"/>
  <path id="svg_6" fill="#FEC400" d="m261.018,54.7543c-0.279,2.1933 2.009,3.9349 4.043,3.7977c2.249,-0.1518 4.157,-1.9942 4.485,-4.2022c0.356,-2.3889 -1.081,-4.3005 -3.304,-4.4754c-2.164,-0.17 -3.549,1.755 -2.924,3.6969c0.447,1.3919 1.72,1.9104 2.361,1.5267c0.499,-0.2988 0.469,-1.0542 -0.135,-1.1878c-0.243,-0.0534 -0.493,0.0814 -0.621,0.2672c-0.529,-0.2101 -1.034,-1.172 -0.692,-2.2128c0.438,-1.3275 2.118,-1.4028 3.161,-0.7834c1.328,0.7882 1.537,2.4849 1.05,3.8378c-0.512,1.421 -1.907,2.5395 -3.427,2.6464c-1.723,0.1227 -3.237,-1.1963 -3.376,-2.9099c-0.032,-0.4045 -0.571,-0.3947 -0.621,-0.0012z"/>
  <path id="svg_7" fill="#FEC400" d="m299.573,47.4126l1.444,-3.256l-1.866,-3.0338c-0.212,-0.345 0.065,-0.7846 0.468,-0.7433l3.546,0.3668l2.311,-2.712c0.264,-0.3085 0.768,-0.181 0.853,0.215l0.747,3.4819l3.295,1.359c0.375,0.1555 0.411,0.6729 0.059,0.8757l-3.084,1.7865l-0.276,3.5512c-0.03,0.4044 -0.513,0.5975 -0.816,0.3267l-2.652,-2.3792l-3.466,0.8356c-0.394,0.0959 -0.727,-0.3024 -0.563,-0.6741z"/>
  <path id="svg_8" fill="#FEC400" d="m164.35,24.3531l1.083,-2.4424l-1.401,-2.2759c-0.159,-0.2587 0.049,-0.5878 0.352,-0.5575l2.66,0.2745l1.733,-2.0331c0.198,-0.2319 0.575,-0.136 0.64,0.1616l0.56,2.6111l2.472,1.0202c0.282,0.1154 0.307,0.504 0.045,0.657l-2.314,1.3396l-0.207,2.6634c-0.024,0.3036 -0.385,0.4481 -0.611,0.2441l-1.991,-1.7829l-2.599,0.6267c-0.296,0.0705 -0.546,-0.2283 -0.422,-0.5064z"/>
  <path id="svg_9" fill="#F3BD06" d="m323.826,75.5974l1.533,-2.7836l4.756,1.9699l2.745,-3.7929l3.801,0.8927l0.452,-1.9213l-5.082,-1.1951l-2.602,3.5949l-4.948,-2.0501l-2.307,4.1888l1.652,1.0967z"/>
  <path id="svg_10" fill="#FEC400" d="m199.074,15.5371l-2.701,-1.6785l2.225,-4.63934l-3.646,-2.94028l1.095,-3.7443l-1.896,-0.5538l-1.466,5.00616l3.455,2.78726l-2.314,4.8264l4.064,2.5261l1.184,-1.5897z"/>
  <path id="svg_11" fill="#F3BD06" d="m241.83,31.9558l1.787,-2.9124l-2.842,-1.1513l-1.788,2.9123l2.843,1.1514zm-7.243,2.599l1.998,-3.2439l-1.604,-0.6498c-0.352,-0.1421 -0.522,-0.5429 -0.378,-0.8939c0.142,-0.3509 0.542,-0.5198 0.893,-0.3777l1.852,0.7506l1.787,-2.9124l-1.716,-0.6946c-0.351,-0.1434 -0.52,-0.5429 -0.378,-0.8939c0.144,-0.351 0.544,-0.5198 0.895,-0.3777l1.96,0.7943l2.076,-3.3351c0.176,-0.2841 0.531,-0.3995 0.84,-0.2732l0.299,0.1214c0.394,0.1591 0.55,0.6316 0.328,0.9935l-1.93,3.1468l2.842,1.1513l2.075,-3.335c0.176,-0.283 0.531,-0.3984 0.841,-0.2733l0.327,0.1324c0.393,0.1591 0.549,0.6328 0.327,0.9935l-1.93,3.1467l1.605,0.651c0.351,0.1421 0.521,0.5417 0.378,0.8926c-0.142,0.351 -0.542,0.5199 -0.894,0.3778l-1.851,-0.7494l-1.759,2.9233l1.714,0.6947c0.351,0.1421 0.52,0.5416 0.378,0.8926c-0.142,0.351 -0.542,0.5211 -0.894,0.3777l-1.961,-0.7942l-2.12,3.4406c-0.175,0.2854 -0.531,0.402 -0.842,0.2757l-0.35,-0.1421c-0.393,-0.1591 -0.549,-0.6339 -0.326,-0.9946l1.998,-3.244l-2.842,-1.1513l-2.12,3.4407c-0.175,0.2841 -0.531,0.4007 -0.842,0.2756l-0.35,-0.1421c-0.393,-0.159 -0.549,-0.6339 -0.326,-0.9946z"/>
  <path id="svg_12" fill="#EDAE10" d="m147.622,0.68497l-0.026,-0.00728c-0.229,-0.0838 -0.464,-0.15791 -0.702,-0.22592c-0.08,-0.02307 -0.161,-0.04735 -0.243,-0.06922c-0.085,-0.02307 -0.173,-0.04373 -0.259,-0.06437c-0.088,-0.02065 -0.177,-0.04129 -0.265,-0.06073c-0.084,-0.01822 -0.168,-0.034 -0.252,-0.04979c-0.095,-0.01822 -0.19,-0.03643 -0.284,-0.0522c-0.082,-0.01337 -0.163,-0.02553 -0.245,-0.03768c-0.102,-0.01457 -0.205,-0.0267 -0.31,-0.03885c-0.075,-0.00851 -0.151,-0.01822 -0.226,-0.02551c-0.119,-0.01092 -0.238,-0.01944 -0.357,-0.02673c-0.064,-0.00485 -0.127,-0.00971 -0.19,-0.01335c-0.184,-0.0085 -0.368,-0.01336 -0.554,-0.01336l-85.2564,0c-0.1984,0 -0.3956,0.00486 -0.5916,0.01458c-0.3919,0.02064 -0.7785,0.05952 -1.1591,0.11781c-0.1903,0.02914 -0.3791,0.06316 -0.5661,0.10202c-4.8646,0.9971 -8.6098,5.07536 -9.1202,10.11191c-0.0392,0.3874 -0.0593,0.7797 -0.0593,1.178l0,142.2177l0,32.446c0,4.988 3.1611,9.234 7.584,10.839c0.0196,0.006 0.0395,0.013 0.0591,0.02c0.2193,0.079 0.4422,0.149 0.6674,0.214c0.0813,0.023 0.1622,0.047 0.2441,0.069c0.0858,0.023 0.1726,0.043 0.2592,0.064c0.088,0.021 0.176,0.041 0.2648,0.061c0.0836,0.018 0.1678,0.034 0.2522,0.051c0.0945,0.017 0.1894,0.035 0.2847,0.05c0.081,0.014 0.1619,0.026 0.2434,0.039c0.103,0.014 0.2064,0.026 0.3104,0.038c0.0753,0.009 0.1507,0.019 0.2267,0.026c0.1185,0.011 0.2379,0.019 0.3575,0.027c0.0629,0.003 0.1253,0.009 0.1886,0.013c0.1838,0.008 0.3683,0.013 0.5542,0.013l85.2564,0c0.397,0 0.789,-0.02 1.175,-0.059c5.411,-0.55 9.712,-4.863 10.262,-10.287c0.04,-0.387 0.059,-0.78 0.059,-1.178l0,-142.2173l0,-32.4464c0,-4.98791 -3.16,-9.23377 -7.583,-10.83933z"/>
  <path id="svg_13" fill="#EAFCFC" d="m52.5295,182.005l97.4335,0l0,-166.2979l-97.4335,0l0,166.2979z"/>
  <path id="svg_14" fill="white" d="m136.326,119.639c-5.32,6.486 -10.947,13.313 -15.866,19.26l-28.4842,-15.808l29.4792,-12.947l14.871,9.495zm-7.738,27.084l-6.299,19.541l-51.9044,-18.954l0.933,-15.146l17.3263,-7.609l39.9441,22.168zm-58.6056,-35.838l0,-18.0709l27.6806,-0.5465l16.833,14.6064l-28.8834,12.686l-15.6302,-8.675zm-11.9254,-20.7319l15.256,-19.3469l23.4299,0.9716l0,17.6114l-38.6859,0.7639zm18.581,-50.7379l34.594,14.8241l0,12.3417l-34.594,-1.4331l0,-25.7327zm38.87,33.1399l1.595,32.7469l-17.4617,-15.1525l0,-18.2526l15.8667,0.6582zm34.455,13.204l-28.121,-2.3051l-0.802,-16.4661l-6.91,-0.2867l0,-11.2195l35.833,15.3549l0,-3.1516l-11.886,-5.0936l-2.251,-46.8843l-2.901,0l2.189,45.6151l-20.984,-8.9908l0,-0.3207l-0.747,0l-4.774,-2.0464l-0.022,-34.2572l-2.899,0l0.021,33.0148l-29.071,-12.4571l0,-20.5577l-5.797,0l0,18.0741l-18.3115,-7.8469l0,3.1504l18.3115,7.8469l0,18.3182l-18.3115,-8.5391l0,3.1953l18.3115,8.5391l0,10.8163l-16.5319,20.9658l-1.7796,0.0352l0,2.8966l14.5545,-0.2878l0,19.7168l15.1967,8.435l-15.9431,7.002l-13.8081,-9.844l0,3.557l13.0398,9.296l0.0109,-0.014l-3.1407,50.985l5.8079,0l1.9515,-31.68l24.497,8.946l-2.804,22.734l2.9203,0l2.6782,-21.714l23.9096,8.731l-4.186,12.983l3.046,0l3.864,-11.988l25.839,9.437l0,-3.084l-24.95,-9.111l7.063,-21.912l-9.04,-5.018c3.142,-3.8 9.925,-12.016 16.694,-20.276c4.312,-5.26 7.648,-9.352 10.233,-12.545l0,-4.61c-3.205,3.977 -7.342,9.057 -11.788,14.485l-15.152,-9.674l-1.04,-21.3378l27.98,2.293l0,-2.9051z"/>
  <path id="svg_15" fill="#C0DDE3" d="m122.894,169.07l-56.8547,-20.298l0.9956,-18.502l49.8711,-22.023l-19.726,-16.8916l0,-21.3496l-24.4757,-0.7359l0,-19.455l2.0702,0l0,17.4486l24.4756,0.7348l0,22.4062l21.4969,18.4085l-51.7129,22.836l-0.8446,15.693l55.4015,19.781l-0.697,1.947z"/>
  <path id="svg_16" fill="#183658" d="m71.0986,40.7329c0.0191,-1.5181 1.2661,-2.7326 2.7853,-2.7132c1.5193,0.0195 2.7353,1.2643 2.7162,2.7824c-0.0192,1.5181 -1.2662,2.7326 -2.7855,2.7132c-1.5192,-0.0182 -2.7352,-1.2643 -2.716,-2.7824zm-2.7143,2.1837l5.3052,10.5199l5.5688,-10.3839c1.6487,-3.8087 -0.9978,-8.1529 -5.1479,-8.3254c-0.0614,-0.0024 -0.123,-0.0048 -0.1849,-0.0048c-0.0618,-0.0012 -0.1235,-0.0012 -0.1849,0c-4.1531,0.068 -6.9085,4.3442 -5.3563,8.1942z"/>
  <path id="svg_17" fill="#184655" d="m120.455,156.367c0.02,-1.518 1.267,-2.732 2.787,-2.714c1.518,0.019 2.735,1.265 2.715,2.784c-0.019,1.516 -1.266,2.732 -2.786,2.713c-1.518,-0.02 -2.735,-1.266 -2.716,-2.783zm-2.713,2.183l5.305,10.52l5.568,-10.383c1.65,-3.809 -0.997,-8.154 -5.147,-8.327c-0.062,-0.002 -0.123,-0.003 -0.185,-0.004c-0.062,-0.002 -0.124,-0.002 -0.185,0c-4.154,0.068 -6.909,4.345 -5.356,8.194z"/>
  <path id="svg_18" fill="white" d="m121.83,10.4811l-41.3402,0c-0.0582,0 -0.1055,-0.0473 -0.1055,-0.1056l0,-1.87278c0,-0.05829 0.0473,-0.10565 0.1055,-0.10565l41.3402,0c0.059,0 0.106,0.04736 0.106,0.10565l0,1.87278c0,0.0583 -0.047,0.1056 -0.106,0.1056z"/>
  <path id="svg_19" fill="#2A2A2A" d="m96.2561,190.018c0,2.634 2.1352,4.781 4.7689,4.781c2.634,0 4.769,-2.147 4.769,-4.781c0,-2.634 -2.135,-4.781 -4.769,-4.781c-2.6337,0 -4.7689,2.147 -4.7689,4.781z"/>
  <path id="svg_20" fill="#C7EEF1" d="m139.556,182.005l-19.296,0l1.182,-3.671c7.324,1.176 14.365,2.282 18.196,2.82c-0.021,0.285 -0.049,0.57 -0.082,0.851zm-22.342,0l-22.4018,0l0.5444,-4.413l0.9005,0.237c0.0987,0.017 0.1969,0.025 0.2934,0.025c0.8605,0 1.6054,-0.651 1.7026,-1.537c0.0014,-0.014 0.0029,-0.028 0.0045,-0.042c0.0008,-0.008 0.0018,-0.015 0.0028,-0.024c0.0003,-0.005 0.0008,-0.008 0.0013,-0.012c0.0461,-0.407 0.1029,-0.811 0.1697,-1.211l2.7096,0c4.308,0.709 10.817,1.777 17.407,2.84l-1.334,4.137zm-25.3221,0l-23.6445,0l0.4298,-6.977l16.9676,0l6.8837,1.817l-0.6366,5.16zm-29.4524,0l-9.91,0l0,-6.977l10.3399,0l-0.4299,6.977z"/>
  <path id="svg_21" fill="#D8F0F3" d="m120.26,182.005l-3.046,0l1.334,-4.137c0.966,0.156 1.933,0.312 2.894,0.466l-1.182,3.671zm-25.4478,0l-2.9203,0l0.6365,-5.16l2.8282,0.747l-0.5444,4.413zm-26.5649,0l-5.8078,0l0.4298,-6.977l5.8079,0l-0.4299,6.977z"/>
  <path id="svg_22" fill="#C7EEF1" d="m149.963,24.5316l-13.714,0l-0.423,-8.8246l14.137,0l0,8.8246zm-16.615,0l-24.756,0l-0.005,-8.8246l24.338,0l0.423,8.8246zm-27.654,0l-29.056,0l0,-8.8246l29.05,0l0.006,8.8246zm-34.853,0l-18.3115,0l0,-8.8246l18.3115,0l0,8.8246z"/>
  <path id="svg_23" fill="#D8F0F3" d="m136.249,24.5316l-2.901,0l-0.423,-8.8246l2.901,0l0.423,8.8246zm-27.657,0l-2.898,0l-0.006,-8.8246l2.899,0l0.005,8.8246zm-31.954,0l-5.7969,0l0,-8.8246l5.7969,0l0,8.8246z"/>
  <path id="svg_24" fill="#FEC400" d="m283.273,91.1539l-35.99,0c-1.243,0 -2.251,1.0104 -2.251,2.2565l0,14.8886c0,1.246 1.008,2.256 2.251,2.256l28.335,0c1.147,1.605 3.225,4.477 3.409,4.477c0.171,0 -0.159,-2.713 -0.392,-4.477l4.638,0c1.243,0 2.251,-1.01 2.251,-2.256l0,-14.8886c0,-1.2461 -1.008,-2.2565 -2.251,-2.2565z"/>
  <path id="svg_25" fill="white" d="m260.335,97.4364l-10.365,0c-0.176,0 -0.319,-0.1421 -0.319,-0.3182l0,-0.3461c0,-0.1761 0.143,-0.3182 0.319,-0.3182l10.365,0c0.176,0 0.319,0.1421 0.319,0.3182l0,0.3461c0,0.1761 -0.143,0.3182 -0.319,0.3182z"/>
  <path id="svg_26" fill="white" d="m256.764,101.727l-6.794,0c-0.176,0 -0.319,-0.142 -0.319,-0.318l0,-0.346c0,-0.176 0.143,-0.318 0.319,-0.318l6.794,0c0.177,0 0.319,0.142 0.319,0.318l0,0.346c0,0.176 -0.142,0.318 -0.319,0.318z"/>
  <path id="svg_27" fill="white" d="m266.808,101.727l-7.417,0c-0.176,0 -0.318,-0.142 -0.318,-0.318l0,-0.346c0,-0.176 0.142,-0.318 0.318,-0.318l7.417,0c0.176,0 0.319,0.142 0.319,0.318l0,0.346c0,0.176 -0.143,0.318 -0.319,0.318z"/>
  <path id="svg_28" fill="white" d="m280.749,101.727l-10.995,0c-0.177,0 -0.319,-0.142 -0.319,-0.318l0,-0.346c0,-0.176 0.142,-0.318 0.319,-0.318l10.995,0c0.176,0 0.319,0.142 0.319,0.318l0,0.346c0,0.176 -0.143,0.318 -0.319,0.318z"/>
  <path id="svg_29" fill="white" d="m280.75,97.4364l-17.41,0c-0.176,0 -0.319,-0.1421 -0.319,-0.3182l0,-0.3461c0,-0.1761 0.143,-0.3182 0.319,-0.3182l17.41,0c0.175,0 0.318,0.1421 0.318,0.3182l0,0.3461c0,0.1761 -0.143,0.3182 -0.318,0.3182z"/>
  <path id="svg_30" fill="white" d="m264.072,106.101l-14.102,0c-0.176,0 -0.319,-0.144 -0.319,-0.32l0,-0.346c0,-0.175 0.143,-0.318 0.319,-0.318l14.102,0c0.176,0 0.318,0.143 0.318,0.318l0,0.346c0,0.176 -0.142,0.32 -0.318,0.32z"/>
  <path id="svg_31" fill="white" d="m280.75,106.101l-14.107,0c-0.176,0 -0.32,-0.144 -0.32,-0.32l0,-0.346c0,-0.175 0.144,-0.318 0.32,-0.318l14.107,0c0.175,0 0.318,0.143 0.318,0.318l0,0.346c0,0.176 -0.143,0.32 -0.318,0.32z"/>
  <path id="svg_32" fill="#183658" d="m96.0442,174.188c0,0 46.0108,7.627 46.5628,7.296c0.552,-0.33 6.51,-26.014 6.51,-26.014c0,0 -38.048,-6.834 -38.664,-6.834c-0.617,0 -8.892,6.613 -9.002,7.055c-0.11,0.441 -5.4068,18.497 -5.4068,18.497z"/>
  <path id="svg_33" fill="#183658" d="m236.396,180.713c1.102,0.109 56.824,-1.083 56.824,-1.083l-4.193,-12.806c0,0 -7.724,-11.669 -11.806,-11.456c-1.541,0.08 -5.96,-0.43 -11.09,-0.941c-8.46,-0.842 -18.854,-1.684 -21.463,0.123c-4.19,2.904 -7.942,0.589 -9.928,7.534c-1.985,6.944 -3.535,7.722 -1.988,11.908c1.547,4.185 3.644,6.721 3.644,6.721z"/>
  <path id="svg_34" fill="#1A1A1A" d="m100.312,178.759c0,10.468 8.491,18.953 18.965,18.953c10.475,0 18.966,-8.485 18.966,-18.953c0,-10.468 -8.491,-18.953 -18.966,-18.953c-10.474,0 -18.965,8.485 -18.965,18.953z"/>
  <path id="svg_35" fill="#9E9DA2" d="m106.083,178.759c0,7.283 5.908,13.187 13.194,13.187c7.288,0 13.197,-5.904 13.197,-13.187c0,-7.283 -5.909,-13.187 -13.197,-13.187c-7.286,0 -13.194,5.904 -13.194,13.187z"/>
  <path id="svg_36" fill="#D8D9DD" d="m110.453,178.759c0,4.871 3.951,8.82 8.824,8.82c4.875,0 8.826,-3.949 8.826,-8.82c0,-4.87 -3.951,-8.818 -8.826,-8.818c-4.873,0 -8.824,3.948 -8.824,8.818z"/>
  <path id="svg_37" fill="#1A1A1A" d="m246.333,178.759c0,10.468 8.49,18.953 18.964,18.953c10.474,0 18.966,-8.485 18.966,-18.953c0,-10.468 -8.492,-18.953 -18.966,-18.953c-10.474,0 -18.964,8.485 -18.964,18.953z"/>
  <path id="svg_38" fill="#9E9DA2" d="m252.102,178.759c0,7.283 5.908,13.187 13.195,13.187c7.288,0 13.196,-5.904 13.196,-13.187c0,-7.283 -5.908,-13.187 -13.196,-13.187c-7.287,0 -13.195,5.904 -13.195,13.187z"/>
  <path id="svg_39" fill="#D8D9DD" d="m256.473,178.759c0,4.871 3.95,8.82 8.824,8.82c4.875,0 8.826,-3.949 8.826,-8.82c0,-4.87 -3.951,-8.818 -8.826,-8.818c-4.874,0 -8.824,3.948 -8.824,8.818z"/>
  <path id="svg_40" fill="#FEC400" d="m308.839,160.721c-1.604,-10.562 -6.786,-12.781 -22.119,-15.844c-16.919,-3.381 -38.397,-14.404 -38.397,-14.404c0,0 -36.634,-17.931 -45.608,-19.989c-8.974,-2.058 -31.042,-1.47 -49.579,-1.323c-18.536,0.147 -29.424,5.292 -38.839,12.641c-9.416,7.349 -25.7457,12.933 -25.7457,12.933l-2.9667,0.529c-3.0506,0.544 -5.2719,3.196 -5.2719,6.291l0,26.212c0,2.968 2.0009,5.563 4.8732,6.321l10.7213,2.829c0.8732,0.15 1.685,-0.469 1.7813,-1.35c1.1743,-10.722 10.4535,-18.872 21.5185,-18.858c11.765,0.013 21.413,9.671 21.405,21.426c0,1.334 -0.124,2.641 -0.359,3.909c-0.244,1.309 0.763,2.515 2.095,2.515l98.671,0c1.918,0 3.407,-1.683 3.153,-3.581c-0.123,-0.913 -0.187,-1.845 -0.189,-2.792c-0.036,-11.61 9.361,-21.234 20.98,-21.474c12.045,-0.248 21.886,9.432 21.886,21.408c0,0.793 -0.044,1.577 -0.128,2.347c-0.238,2.182 1.451,4.092 3.648,4.092l14.19,0c2.579,0 4.67,-2.089 4.67,-4.666l0,-13.73c0,-1.82 -0.117,-3.641 -0.39,-5.442z"/>
  <path id="svg_41" fill="#F4BE05" d="m80.938,144.656l11.6859,0c1.001,0 1.6791,1.019 1.2922,1.941l-1.3127,3.129c-1.2516,2.983 -4.173,4.924 -7.4106,4.924l-4.2548,0c-0.8329,0 -1.5081,-0.674 -1.5081,-1.506l0,-6.982c0,-0.832 0.6752,-1.506 1.5081,-1.506z"/>
  <path id="svg_42" fill="#F3FCFF" d="m290.251,149.507c6.435,0.983 13.847,7.072 13.847,7.072c1.771,1.902 0.309,4.99 -2.287,4.826l-12.548,-0.792c-2.606,-0.165 -4.829,-1.945 -5.556,-4.452c-1.22,-4.21 -0.182,-7.684 6.544,-6.654z"/>
  <path id="svg_43" fill="#F5BF28" d="m80.3808,168.742c-0.8046,-0.02 -1.3747,0.788 -1.078,1.535c0.8392,2.113 2.6394,3.775 4.9409,4.382l12.0132,3.17c0.9784,0.169 1.8881,-0.526 1.996,-1.512c0.2225,-2.033 0.708,-3.98 1.417,-5.817c0.2402,-0.621 -0.2128,-1.293 -0.88,-1.309l-18.4091,-0.449z"/>
  <path id="svg_44" fill="#F5BF28" d="m286.95,173.682c-0.913,-0.023 -1.618,0.778 -1.501,1.682c0.129,1.005 0.197,2.03 0.197,3.07c0,0.88 -0.048,1.748 -0.142,2.603c-0.265,2.421 1.611,4.543 4.048,4.543l15.745,0c2.863,0 5.183,-2.319 5.183,-5.179l0,-4.07c0,-1.155 -0.922,-2.097 -2.077,-2.126l-21.453,-0.523z"/>
  <path id="svg_45" fill="#F3BD06" d="m242.326,173.967l-0.993,-0.025c0.575,-16.914 5.378,-33.958 6.186,-36.722c-2.801,-1.531 -21.672,-11.796 -34.485,-17.725c-10.919,-5.052 -22.881,-5.574 -27.361,-5.574c-0.587,0 -1.047,0.008 -1.358,0.017l0,58.614l-0.992,-0.025l0,-58.581c-1.262,-0.024 -4.864,-0.084 -9.622,-0.084c-12.103,0 -31.677,0.385 -39.166,2.717c-10.428,3.248 -24.382,17.977 -26.09,19.811l3.683,17.265c0.904,-0.045 1.782,-0.065 2.633,-0.065c13.025,0 19.859,4.997 23.344,9.37c2.582,3.241 3.722,6.535 4.214,8.568l-1.04,-0.026c-0.51,-1.961 -1.62,-5.013 -3.983,-7.964c-4.715,-5.886 -12.476,-8.956 -22.559,-8.956c-0.971,0 -1.965,0.029 -2.979,0.086l-0.424,0.025l-3.967,-18.597l0.172,-0.188c0.622,-0.683 15.375,-16.749 26.701,-20.276c7.613,-2.371 26.84,-2.773 39.006,-2.773c5.803,0 9.999,0.093 10.567,0.105c0.125,-0.006 0.777,-0.035 1.846,-0.035c4.562,0 16.7,0.534 27.792,5.666c13.832,6.401 34.689,17.832 34.898,17.947l0.354,0.194l-0.119,0.385c-0.057,0.191 -5.637,18.603 -6.258,36.846z"/>
  <path id="svg_46" fill="#E9D7A0" d="m98.4315,175.028l-0.0006,0c0.0242,-0.144 0.0498,-0.289 0.0767,-0.434l0.0009,0c-0.027,0.145 -0.0527,0.29 -0.077,0.434z"/>
  <path id="svg_47" fill="#C6CB99" d="m98.2576,176.275c0.0008,-0.008 0.0018,-0.015 0.0028,-0.024c-0.001,0.009 -0.002,0.016 -0.0028,0.024zm0.0041,-0.036c0.046,-0.407 0.1025,-0.811 0.1691,-1.211l0.0006,0c-0.0669,0.4 -0.1236,0.804 -0.1697,1.211z"/>
  <path id="svg_48" fill="#F3BD06" d="m98.5084,174.594l-0.0008,0c0.0369,-0.197 0.0764,-0.395 0.1185,-0.591l0.001,0c-0.042,0.196 -0.0816,0.394 -0.1187,0.591z"/>
  <path id="svg_49" fill="#F4BE05" d="m96.5505,177.854c-0.0965,0 -0.1947,-0.008 -0.2934,-0.025l-0.9005,-0.237l-2.8282,-0.747l-8.2845,-2.186c-2.3016,-0.607 -4.1017,-2.269 -4.9409,-4.382l19.323,3.726c-0.042,0.196 -0.0815,0.394 -0.1185,0.591c-0.0269,0.145 -0.0525,0.29 -0.0767,0.434c-0.0666,0.4 -0.1231,0.804 -0.1691,1.211c-0.0005,0.004 -0.001,0.007 -0.0013,0.012c-0.001,0.009 -0.002,0.016 -0.0028,0.024c-0.0016,0.014 -0.0031,0.028 -0.0045,0.042c-0.0972,0.886 -0.8421,1.537 -1.7026,1.537z"/>
  <path id="svg_50" fill="#E5C99D" d="m285.513,180.957c0,0 0,0 0,-0.001c0,0.001 0,0.001 0,0.001zm0.003,-0.029c0.039,-0.376 0.068,-0.755 0.09,-1.137c0.001,0 0,0 0.001,0c-0.022,0.382 -0.052,0.761 -0.091,1.137z"/>
  <path id="svg_51" fill="#F3BD06" d="m285.606,179.791c0.005,-0.081 0.009,-0.161 0.012,-0.243l0.003,0c-0.005,0.082 -0.009,0.162 -0.014,0.243c-0.001,0 0,0 -0.001,0z"/>
  <path id="svg_52" fill="#F4BE05" d="m305.297,185.58l-15.745,0c-2.285,0 -4.076,-1.865 -4.072,-4.093c0,-0.148 0.008,-0.298 0.024,-0.45c0.004,-0.026 0.006,-0.053 0.009,-0.08c0,0 0,0 0,-0.001c0.001,-0.008 0.002,-0.018 0.003,-0.028c0.039,-0.376 0.07,-0.755 0.091,-1.137c0.005,-0.081 0.009,-0.161 0.014,-0.243l24.859,0l0,0.853c0,2.86 -2.321,5.179 -5.183,5.179z"/>
  <path id="svg_53" fill="#F5BF28" d="m244.913,179.548c-0.004,-1.073 0.073,-2.13 0.223,-3.163c0.181,-1.243 -0.746,-2.369 -2.002,-2.399l-102.627,-2.503c-1.12,-0.027 -1.927,1.041 -1.622,2.117c0.532,1.877 0.818,3.856 0.817,5.895c-0.001,1.353 -0.125,2.675 -0.364,3.959c-0.246,1.341 0.765,2.581 2.13,2.581l100.429,0c1.97,0 3.459,-1.74 3.202,-3.692c-0.121,-0.915 -0.184,-1.847 -0.186,-2.795z"/>
  <path id="svg_54" fill="#F4BE05" d="m241.897,186.035l-100.429,0c-1.226,0 -2.167,-1.001 -2.166,-2.176c0,-0.134 0.012,-0.269 0.036,-0.405c0.239,-1.284 0.363,-2.606 0.364,-3.959l105.211,0c0,0.018 0,0.035 0,0.053c0.002,0.948 0.065,1.88 0.186,2.795c0.02,0.149 0.029,0.296 0.029,0.442c-0.001,1.765 -1.412,3.25 -3.231,3.25z"/>
  <path id="svg_55" fill="#F5BF28" d="m130.583,144l-12.805,0c-0.302,0 -0.549,-0.245 -0.549,-0.549l0,-1.144c0,-0.302 0.247,-0.549 0.549,-0.549l12.805,0c0.303,0 0.55,0.247 0.55,0.549l0,1.144c0,0.304 -0.247,0.549 -0.55,0.549z"/>
  <path id="svg_56" fill="#F5BF28" d="m201.173,145.121l-12.804,0c-0.304,0 -0.549,-0.246 -0.549,-0.549l0,-1.144c0,-0.302 0.245,-0.549 0.549,-0.549l12.804,0c0.303,0 0.549,0.247 0.549,0.549l0,1.144c0,0.303 -0.246,0.549 -0.549,0.549z"/>
  <path id="svg_57" fill="#2A2A2A" d="m119.677,138.299l56.718,0.536c0,0 3.472,-0.094 3.943,-3.357c0.473,-3.263 0.433,-17.24 0.433,-17.24c0,0 -0.412,-2.806 -3.102,-2.843c-1.635,-0.022 -15.338,-0.999 -28.666,0.622c-10.872,1.324 -20.929,6.284 -28.554,13.905l-4.026,4.022c0,0 -2.716,4.299 3.254,4.355z"/>
  <path id="svg_58" fill="#2A2A2A" d="m187.084,120.011l0,14.655c0,1.904 1.463,3.467 3.312,3.542l44.566,1.79c1.023,0.042 2.026,-0.421 2.612,-1.285c0.799,-1.176 0.892,-3.115 -3.102,-5.713c-6.944,-4.517 -24.612,-14.289 -31.149,-15.234c-4.16,-0.603 -9.604,-0.864 -13.011,-0.974c-1.767,-0.057 -3.228,1.4 -3.228,3.219z"/>
  <path id="svg_59" fill="#183658" d="m281.309,122.193l-0.292,0.262c-0.151,0.135 -0.377,0.13 -0.506,-0.012l-5.191,-5.72c-0.129,-0.143 -0.112,-0.367 0.039,-0.502l0.293,-0.262c0.15,-0.135 0.377,-0.13 0.506,0.012l5.191,5.72c0.128,0.142 0.11,0.367 -0.04,0.502z"/>
  <path id="svg_60" fill="#F7A491" d="m298.907,117.546c-0.693,-0.566 -6.059,1.794 -5.991,2.616c0.068,0.821 -3.743,8.786 -3.743,8.786l-6.588,-5.265l-0.002,0.001c-0.059,-0.191 -0.683,-2.238 -0.714,-2.604c-0.031,-0.385 -1.145,-1.058 -1.662,-0.958c-0.516,0.1 0.443,0.749 0.505,0.868c0.171,0.326 -0.491,0.447 -0.491,0.447c0,0 -1.904,-1.047 -1.944,-1.662c-0.04,-0.616 -0.433,-1.907 -0.844,-1.638c-0.213,0.14 -0.21,1.056 -0.144,1.491c-0.122,-0.493 -0.296,-1.051 -0.464,-1.107c-0.308,-0.101 -0.462,0.293 -0.406,0.485c0.056,0.193 0.553,2.287 0.704,2.524c0.149,0.229 3.222,2.712 3.665,3.251c0,0 8.521,9.764 9.128,10.019c0.531,0.224 2.43,-3.14 4.223,-5.375c1.793,-2.233 6.937,-10.112 4.768,-11.879z"/>
  <path id="svg_61" fill="#F48C7F" d="m316.1,189.342c0,0 1.171,1.145 1.198,1.566c0.026,0.42 0.103,4.923 -0.375,5.343c-0.478,0.421 -1.882,0.718 -1.431,1.191c0.342,0.358 2.967,0.281 4.705,0.185c0.508,-0.028 1.145,-4.089 1.346,-4.686c0.293,-0.866 1.003,-2.819 0.738,-3.424c-0.13,-0.294 -0.749,-0.899 -1.622,-1.464c-0.917,-0.593 -1.794,-1.916 -1.794,-1.916l-2.765,3.205z"/>
  <path id="svg_62" fill="#F7A491" d="m303.971,192.009l1.05,2.974c0.077,0.47 0.384,1.633 0.384,2.06c0,1.606 -7.223,-1.362 -5.605,-2.074c0.148,-0.065 0.607,-0.579 0.655,-1.126c0.075,-0.842 -0.608,-1.897 -0.608,-1.897l4.124,0.063z"/>
  <path id="svg_63" fill="#F4BE05" d="m292.64,136.757c0,0 -0.526,5.318 -0.526,5.398c0,8.605 -1.702,25.412 -1.378,27.03c0.789,3.946 9.286,24.075 9.286,24.075l4.591,-0.55l-5.983,-24.101l2.201,-9.7l3.117,-19.174l-11.308,-2.978z"/>
  <path id="svg_64" fill="#F5BF28" d="m308.052,141.462l0.871,5.041l2.358,20.749l8.978,20.279c0,0 -1.263,2.95 -3.127,3.364l-14.289,-20.82l-8.875,-26.641l0.311,-5.918l13.773,3.946z"/>
  <path id="svg_65" fill="#2A2A2A" d="m290.809,124.091l6.368,0.652c0,0 0.292,-5.233 0.292,-7.729c0,-3.029 -0.258,-6.929 -0.623,-6.845c-1.023,0.236 -2.402,0.802 -3.224,1.934c-2.841,3.912 -2.813,11.988 -2.813,11.988z"/>
  <path id="svg_66" fill="#2A2A2A" d="m293.937,116.48c-0.134,0.923 -2.581,26.025 -2.581,26.025c11.594,5.613 17.991,1 17.991,1c0,0 -0.379,-17.626 0.075,-20.026c0.302,-1.588 0.676,-12.135 -0.35,-12.431c-1.316,-0.378 -2.826,-0.782 -4.472,-0.953c-1.404,-0.146 -6.861,-0.231 -7.838,0.098c0,0 -2.264,2.404 -2.825,6.287z"/>
  <path id="svg_67" fill="#F3BD06" d="m320.603,188.024c0,0 -2.699,7.616 -3.755,7.984c-0.281,0.099 -1.627,0.347 -1.881,0.943c-0.076,0.18 0,0.78 0,0.78l5.625,0c0,0 0.711,-3.356 0.993,-4.83c0,0 1.488,-3.603 1.323,-3.931c-0.165,-0.327 -2.305,-0.946 -2.305,-0.946z"/>
  <path id="svg_68" fill="#F3BD06" d="m305.816,197.573l-0.827,-2.62c0,0 -1.737,0.737 -2.607,0.615c-0.868,-0.123 -2.563,-0.615 -2.563,-0.615c-3.467,1.144 -6.307,1.699 -5.791,2.62l11.788,0z"/>
  <path id="svg_69" fill="#F7A491" d="m289.916,134.8c-0.027,-0.011 -0.122,-0.085 -0.175,-0.13c0.205,-2.459 0.169,-4.842 -0.602,-5.648c0.019,-0.038 0.187,-0.397 0.363,-0.769c0.893,0.692 1.316,2.53 1.15,5.514c-0.012,0.205 -0.07,0.362 -0.117,0.617c-0.259,0.285 -0.494,0.469 -0.619,0.416z"/>
  <path id="svg_70" fill="#F8A492" d="m320.83,142.771c0.008,-0.053 0.009,-0.108 0.004,-0.161c-0.171,-1.738 -1.611,-16.337 -1.854,-16.957c-0.219,-0.56 -6.676,-9.818 -6.676,-9.818l-3.174,4.334l6.21,8.304c0.139,0.528 2.379,10.383 2.379,10.383c0,0 0.46,1.795 0.667,2.871c-0.095,0.26 -0.186,0.504 -0.268,0.705c-0.206,0.429 -0.448,0.781 -0.67,1.077c-0.277,0.375 -0.736,1.188 -0.792,1.407c-0.066,0.254 -0.185,0.781 -0.252,1.098c-0.067,0.318 -0.159,0.688 -0.175,0.861c-0.008,0.106 -0.117,0.314 -0.201,0.463c-0.124,0.219 0.088,0.481 0.328,0.4c0.226,-0.075 0.401,-0.368 0.509,-0.55c0.306,-0.515 0.469,-1.455 0.544,-1.405c0.077,0.049 0.345,1.644 0.387,1.824c0.043,0.181 0.364,2.033 0.545,2.372c0.181,0.339 0.422,0.282 0.485,0.069c0.054,-0.182 -0.201,-2.774 -0.201,-2.774c0,0 -0.031,-0.33 0.113,-0.227c0.145,0.104 0.381,2.456 0.482,2.801c0.099,0.344 0.329,0.527 0.524,0.25c0.235,-0.336 -0.171,-2.832 -0.171,-2.832c0,0 -0.046,-0.315 0.088,-0.285c0.134,0.029 0.301,2.035 0.405,2.207c0.104,0.174 0.367,0.236 0.492,-0.053c0.147,-0.34 -0.235,-2.565 -0.235,-2.565c0,0 0.02,-0.177 0.103,-0.118c0.083,0.059 0.347,1.758 0.52,1.915c0.145,0.133 0.266,0.004 0.266,0.004c0.316,-0.216 -0.169,-1.833 -0.164,-2.637c0.005,-0.802 -0.367,-1.706 -0.256,-2.663c0.007,-0.059 0.026,-0.208 0.038,-0.3z"/>
  <path id="svg_71" fill="#2A2A2A" d="m317.349,121.698l-5.516,3.713c0,0 -3.11,-4.638 -4.779,-6.289c-2.089,-2.068 0.763,-8.404 2.11,-8.046c3.012,0.802 8.185,10.622 8.185,10.622z"/>
  <path id="svg_72" fill="#F7A491" d="m304.195,104.669l0.826,5.452c0,0 -3.014,6.49 -4.813,5.928c-1.509,-0.473 -0.58,-6.216 -0.58,-6.216c0,0 0.822,-3.085 0.575,-4.629c-0.247,-1.542 3.992,-0.535 3.992,-0.535z"/>
  <path id="svg_73" fill="#F4BE05" d="m300.203,105.204c-0.247,-1.542 3.992,-0.535 3.992,-0.535l0.068,0.452c-0.124,0.302 -0.276,0.561 -0.459,0.76c-0.947,1.021 -2.427,1.634 -3.706,1.681c0.128,-0.832 0.207,-1.724 0.105,-2.358z"/>
  <path id="svg_74" fill="#F7A491" d="m304.89,96.9567c0.12,-0.0437 0.961,6.2083 -0.634,7.9293c-1.595,1.72 -4.702,2.283 -5.817,0.928c-1.233,-1.499 -1.171,-8.2184 1.309,-9.988c2.479,-1.7695 5.142,1.1307 5.142,1.1307z"/>
  <path id="svg_75" fill="#184655" d="m300.692,92.4813c1.917,0.3923 3.158,1.5655 3.614,2.0659c0.87,0.1032 2.053,0.5854 3.275,2.6124c1.501,2.4933 0.392,5.2554 -1.356,6.6094c-1.749,1.355 -1.725,2.919 -1.725,2.919l-0.276,-0.808c-0.204,-0.614 -0.287,-1.263 -0.219,-1.907c0.042,-0.386 0.124,-0.804 0.284,-1.147c0.419,-0.904 -0.904,-1.506 -1.276,-2.259c-0.285,-0.5789 -0.299,-1.9051 -0.75,-2.8633l-0.537,-0.7312c0,0 -1.24,-0.9679 -2.454,-0.6959c-1.214,0.2733 -1.04,-4.2981 1.42,-3.7953z"/>
  <path id="svg_76" fill="#F7A491" d="m303.095,101.68c-0.012,0.763 0.334,1.387 0.773,1.395c0.439,0.008 0.806,-0.604 0.818,-1.367c0.014,-0.763 -0.333,-1.388 -0.772,-1.396c-0.44,-0.007 -0.806,0.605 -0.819,1.368z"/>
  <path id="svg_77" fill="white" d="m300.506,103.442l-2.404,-0.124c0,0 0.007,0.918 1.064,1.003c1.286,0.105 1.34,-0.879 1.34,-0.879z"/>
  <path id="svg_78" fill="#F4BE05" d="m177.198,66.6563c0.049,-3.8828 3.239,-6.9894 7.124,-6.9408c3.887,0.0485 6.996,3.2354 6.948,7.1169c-0.049,3.8827 -3.239,6.9894 -7.124,6.9408c-3.887,-0.0486 -6.996,-3.2354 -6.948,-7.1169zm-6.941,5.583l13.568,26.9083l14.244,-26.5573c4.216,-9.7415 -2.553,-20.8553 -13.167,-21.2962c-0.157,-0.0072 -0.315,-0.0109 -0.473,-0.0133c-0.158,-0.0024 -0.316,-0.0012 -0.473,0.0012c-10.622,0.1737 -17.67,11.1138 -13.699,20.9573z"/>
  <path id="svg_79" fill="#183658" d="m359.474,201l-352.73446,0c-0.84258,0 -1.52567,-0.683 -1.52567,-1.524l0,-0.379c0,-0.842 0.68309,-1.524 1.52567,-1.524l352.73446,0c0.843,0 1.526,0.682 1.526,1.524l0,0.379c0,0.841 -0.683,1.524 -1.526,1.524z"/>
 </g>
</svg>